<svg width="27" height="19" viewBox="0 0 27 19" fill="none" xmlns="http://www.w3.org/2000/svg">
<path d="M17.3401 14.0005C18.0538 14.0005 18.7605 13.8453 19.4199 13.5438C20.0792 13.2423 20.6784 12.8003 21.183 12.2431C21.6877 11.686 22.088 11.0246 22.3611 10.2966C22.6343 9.56865 22.7748 8.78843 22.7748 8.0005C22.7748 7.21257 22.6343 6.43236 22.3611 5.7044C22.088 4.97645 21.6877 4.31501 21.183 3.75786C20.6784 3.20071 20.0792 2.75875 19.4199 2.45723C18.7605 2.1557 18.0538 2.0005 17.3401 2.0005C15.8987 2.0005 14.5163 2.63264 13.4971 3.75786C12.4779 4.88308 11.9053 6.4092 11.9053 8.0005C11.9053 9.5918 12.4779 11.1179 13.4971 12.2431C14.5163 13.3684 15.8987 14.0005 17.3401 14.0005ZM26.3074 16.4865C26.3939 16.5788 26.4628 16.6892 26.5102 16.8113C26.5576 16.9333 26.5825 17.0645 26.5835 17.1973C26.5844 17.3301 26.5614 17.4618 26.5158 17.5846C26.4702 17.7075 26.4029 17.8191 26.3177 17.9129C26.2326 18.0067 26.1315 18.0809 26.0201 18.1311C25.9088 18.1813 25.7895 18.2065 25.6692 18.2052C25.5489 18.204 25.4301 18.1763 25.3196 18.1238C25.2091 18.0713 25.1092 17.9951 25.0257 17.8995L21.783 14.3195C20.3269 15.5674 18.4948 16.1557 16.6596 15.9647C14.8244 15.7737 13.1241 14.8178 11.9049 13.2916C10.6856 11.7653 10.039 9.78345 10.0968 7.74943C10.1545 5.7154 10.9122 3.78213 12.2156 2.34315C13.5191 0.904173 15.2702 0.0676701 17.1126 0.00392902C18.955 -0.0598121 20.7502 0.654 22.1327 2.00005C23.5152 3.34611 24.381 5.22322 24.554 7.24926C24.727 9.2753 24.1941 11.298 23.0638 12.9055L26.3074 16.4865Z" fill="#181725"/>
<path d="M0.904785 1.19961C0.904785 0.537085 1.44187 0 2.1044 0H7.726C8.38853 0 8.92561 0.537085 8.92561 1.19961C8.92561 1.86214 8.38853 2.39923 7.726 2.39923H2.1044C1.44187 2.39923 0.904785 1.86214 0.904785 1.19961Z" fill="#181725"/>
<path d="M0.904785 8.63781C0.904785 7.97528 1.44187 7.43819 2.1044 7.43819H5.56037C6.2229 7.43819 6.75999 7.97528 6.75999 8.63781C6.75999 9.30034 6.2229 9.83742 5.56037 9.83742H2.1044C1.44187 9.83742 0.904785 9.30034 0.904785 8.63781Z" fill="#181725"/>
<path d="M0.904785 16.0764C0.904785 15.4139 1.44187 14.8768 2.1044 14.8768H7.726C8.38853 14.8768 8.92561 15.4139 8.92561 16.0764C8.92561 16.7389 8.38853 17.276 7.726 17.276H2.1044C1.44187 17.276 0.904785 16.7389 0.904785 16.0764Z" fill="#181725"/>
</svg>
