<svg width="22" height="16" viewBox="0 0 22 16" fill="none" xmlns="http://www.w3.org/2000/svg">
<path d="M20.6317 0H10.8071H0.982531C0.439942 0 6.10352e-05 0.43988 6.10352e-05 0.98247V15.0175C6.10352e-05 15.5601 0.439942 16 0.982531 16H10.8071H20.6317C21.1743 16 21.6142 15.5601 21.6142 15.0175V0.98247C21.6142 0.43988 21.1743 0 20.6317 0Z" fill="#5286F9"/>
<path d="M11.558 5.20417C11.7739 5.45155 11.962 5.72383 12.1167 6.01647C12.4302 6.60921 12.6087 7.28402 12.6087 7.99998C12.6087 8.71595 12.4302 9.39067 12.1167 9.9835C11.962 10.2761 11.7739 10.5483 11.558 10.7957C11.3357 11.0503 11.0839 11.2781 10.8075 11.4741C11.5021 11.9665 12.3494 12.2573 13.2637 12.2573C15.6112 12.2573 17.521 10.3474 17.521 7.99998C17.521 5.65253 15.6112 3.74264 13.2637 3.74264C12.3494 3.74264 11.5021 4.03333 10.8075 4.52586C11.0838 4.72182 11.3356 4.94965 11.558 5.20417Z" fill="#FFB655"/>
<path d="M12.1167 6.01647C11.962 5.72383 11.7739 5.45155 11.558 5.20417C11.3356 4.94965 11.0838 4.72182 10.8075 4.52586C10.113 4.03333 9.266 3.7428 8.35167 3.7428C6.00418 3.7428 4.09437 5.65265 4.09437 8.0001C4.09437 10.3475 6.00422 12.2574 8.35167 12.2574C9.266 12.2574 10.113 11.9665 10.8075 11.4741C11.0839 11.2781 11.3357 11.0503 11.558 10.7957C11.7739 10.5483 11.962 10.2761 12.1167 9.9835C12.4302 9.39067 12.6087 8.71595 12.6087 7.99998C12.6087 7.28402 12.4302 6.60921 12.1167 6.01647Z" fill="#D8143A"/>
<path d="M8.35167 12.2574C6.00422 12.2574 4.09437 10.3475 4.09437 8.0001C4.09437 5.65265 6.00418 3.7428 8.35167 3.7428C9.266 3.7428 10.113 4.03333 10.8075 4.52586L10.8071 0H0.982531C0.439942 0 6.10352e-05 0.43988 6.10352e-05 0.98247V15.0175C6.10352e-05 15.5601 0.439942 16 0.982531 16H10.8071L10.8075 11.4741C10.113 11.9665 9.266 12.2574 8.35167 12.2574Z" fill="#3D6DEB"/>
</svg>
