<svg width="19" height="14" viewBox="0 0 19 14" fill="none" xmlns="http://www.w3.org/2000/svg">
<path d="M16.8478 4.11839V2.19732H1.87198V4.11839H16.8478ZM16.8478 6.03946H1.87198V11.8027H16.8478V6.03946ZM1.87198 0.276246H16.8478C17.3443 0.276246 17.8205 0.478644 18.1715 0.838915C18.5226 1.19919 18.7198 1.68782 18.7198 2.19732V11.8027C18.7198 12.3122 18.5226 12.8008 18.1715 13.1611C17.8205 13.5214 17.3443 13.7238 16.8478 13.7238H1.87198C1.3755 13.7238 0.899355 13.5214 0.548291 13.1611C0.197226 12.8008 0 12.3122 0 11.8027V2.19732C0 1.68782 0.197226 1.19919 0.548291 0.838915C0.899355 0.478644 1.3755 0.276246 1.87198 0.276246ZM3.74396 7.96054H4.67995C4.92819 7.96054 5.16627 8.06174 5.3418 8.24187C5.51733 8.42201 5.61594 8.66632 5.61594 8.92107C5.61594 9.17582 5.51733 9.42014 5.3418 9.60027C5.16627 9.78041 4.92819 9.88161 4.67995 9.88161H3.74396C3.49572 9.88161 3.25765 9.78041 3.08212 9.60027C2.90659 9.42014 2.80797 9.17582 2.80797 8.92107C2.80797 8.66632 2.90659 8.42201 3.08212 8.24187C3.25765 8.06174 3.49572 7.96054 3.74396 7.96054ZM8.42392 7.96054H13.1039C13.3521 7.96054 13.5902 8.06174 13.7657 8.24187C13.9412 8.42201 14.0399 8.66632 14.0399 8.92107C14.0399 9.17582 13.9412 9.42014 13.7657 9.60027C13.5902 9.78041 13.3521 9.88161 13.1039 9.88161H8.42392C8.17568 9.88161 7.9376 9.78041 7.76207 9.60027C7.58654 9.42014 7.48793 9.17582 7.48793 8.92107C7.48793 8.66632 7.58654 8.42201 7.76207 8.24187C7.9376 8.06174 8.17568 7.96054 8.42392 7.96054Z" fill="#181725"/>
</svg>
