<svg width="16" height="16" viewBox="0 0 16 16" fill="none" xmlns="http://www.w3.org/2000/svg">
<path d="M14.6999 13.2048L14.699 13.2038L10.3543 8.96947L10.3541 8.96924L9.3729 8.02549L14.699 2.84757C14.8108 2.73889 14.9019 2.61774 14.9593 2.48382C15.0157 2.35223 15.05 2.2086 15.05 2.06386C15.05 1.91217 15.0278 1.76714 14.9586 1.63176C14.9028 1.50204 14.8239 1.37003 14.7206 1.26961L14.7207 1.26956L14.7187 1.26784C14.6081 1.171 14.4841 1.08292 14.347 1.02739C14.2094 0.971628 14.0509 0.95 13.9057 0.95C13.7574 0.95 13.6105 0.983277 13.4656 1.03743L13.4656 1.03742L13.4644 1.03792C13.3273 1.09345 13.2028 1.18173 13.1016 1.28015L8.01122 6.22891L2.88839 1.24859L2.88841 1.24857L2.88741 1.24766C2.67134 1.04865 2.38796 0.950037 2.09511 0.950037C1.79993 0.950037 1.51668 1.07131 1.31267 1.26965C1.09777 1.47858 0.983579 1.74378 0.983319 2.03131C0.9722 2.31957 1.08643 2.59557 1.29004 2.80452L1.29003 2.80453L1.29096 2.80543L5.63565 7.03981L5.63589 7.04003L6.61708 7.98378L1.291 13.1617C1.17921 13.2704 1.0881 13.3915 1.0307 13.5255C0.9743 13.657 0.939979 13.8007 0.939979 13.9454C0.939979 14.0971 0.962165 14.2421 1.03139 14.3775C1.08717 14.5072 1.16604 14.6392 1.26933 14.7397L1.26928 14.7397L1.27126 14.7414C1.38193 14.8383 1.50588 14.9264 1.64295 14.9819C1.78061 15.0376 1.9391 15.0593 2.08428 15.0593C2.23262 15.0593 2.37951 15.026 2.52434 14.9718L2.52435 14.9719L2.5256 14.9714C2.66268 14.9158 2.78716 14.8275 2.88839 14.7291L7.97876 9.78036L13.1016 14.7607L13.1016 14.7607L13.1026 14.7616C13.3186 14.9606 13.602 15.0592 13.8949 15.0592C14.1901 15.0592 14.4733 14.938 14.6773 14.7396C14.8922 14.5307 15.0064 14.2655 15.0067 13.978C15.0178 13.6897 14.9036 13.4137 14.6999 13.2048Z" fill="#B3B3B3" stroke="#B3B3B3" stroke-width="0.1"/>
</svg>
