<svg width="18" height="18" viewBox="0 0 18 18" fill="none" xmlns="http://www.w3.org/2000/svg">
<path d="M17.6699 8.83423C17.6699 9.21006 17.5258 9.57336 17.2564 9.83644C16.9932 10.1058 16.6297 10.2561 16.2538 10.2561H10.5892V15.9186C10.5892 16.2944 10.4388 16.6577 10.1694 16.9208C9.90619 17.1839 9.54902 17.3342 9.17305 17.3342C8.79709 17.3342 8.43365 17.1839 8.17048 16.9208C7.90103 16.6577 7.75064 16.2944 7.75064 15.9186V10.2561H2.08607C1.7101 10.2561 1.34666 10.1058 1.08349 9.83644C0.820309 9.57336 0.669922 9.21006 0.669922 8.83423C0.669922 8.4584 0.820309 8.10136 1.08349 7.83202C1.34666 7.56894 1.7101 7.41861 2.08607 7.41861H7.75064V1.75611C7.75064 1.38029 7.90103 1.01698 8.17048 0.753904C8.43365 0.48456 8.79709 0.334229 9.17305 0.334229C9.54902 0.334229 9.90619 0.48456 10.1694 0.753904C10.4388 1.01698 10.5892 1.38029 10.5892 1.75611V7.41861H16.2538C16.6297 7.41861 16.9932 7.56894 17.2564 7.83202C17.5258 8.10136 17.6699 8.4584 17.6699 8.83423Z" fill="#53B175"/>
</svg>
