<svg width="270" height="241" viewBox="0 0 270 241" fill="none" xmlns="http://www.w3.org/2000/svg">
<path d="M236.857 117.527C236.857 161.199 201.454 196.603 157.781 196.603C114.108 196.603 78.7049 161.199 78.7049 117.527C78.7049 73.8544 114.108 38.4508 157.781 38.4508C201.454 38.4508 236.857 73.8544 236.857 117.527Z" fill="#53B175"/>
<path d="M192.922 100.227C192.922 102.381 192.077 104.459 190.54 105.944L154.824 140.543C153.211 142.028 151.06 142.919 148.833 142.919C146.605 142.919 144.454 142.028 142.918 140.543L125.021 123.244C123.485 121.759 122.64 119.68 122.64 117.527C122.64 115.374 123.562 113.369 125.098 111.81C126.711 110.325 128.785 109.508 131.013 109.434C133.24 109.434 135.314 110.251 136.927 111.736L148.833 123.244L178.635 94.4361C180.248 92.9512 182.322 92.1344 184.549 92.1344C186.777 92.2087 188.851 93.0254 190.464 94.5846C192 96.0695 192.922 98.0742 192.922 100.227Z" fill="white"/>
<path d="M187.812 233.423C187.812 237.609 184.419 241.002 180.233 241.002C176.046 241.002 172.653 237.609 172.653 233.423C172.653 229.237 176.046 225.843 180.233 225.843C184.419 225.843 187.812 229.237 187.812 233.423Z" fill="#637BFE"/>
<path d="M139.868 8.99579C139.868 13.5799 136.152 17.2961 131.568 17.2961C126.984 17.2961 123.268 13.5799 123.268 8.99579C123.268 4.41165 126.984 0.695465 131.568 0.695465C136.152 0.695465 139.868 4.41165 139.868 8.99579Z" fill="#53B175"/>
<path d="M159.518 23.0056C159.518 25.4265 157.556 27.3891 155.135 27.3891C152.714 27.3891 150.751 25.4265 150.751 23.0056C150.751 20.5847 152.714 18.6221 155.135 18.6221C157.556 18.6221 159.518 20.5847 159.518 23.0056Z" fill="#F3603F"/>
<path d="M152.629 224.731C152.629 226.959 154.436 228.766 156.665 228.766C158.894 228.766 160.7 226.959 160.7 224.731C160.7 222.502 158.894 220.695 156.665 220.695C154.436 220.695 152.629 222.502 152.629 224.731Z" fill="#53B175"/>
</svg>
