<svg width="17" height="18" viewBox="0 0 17 18" fill="none" xmlns="http://www.w3.org/2000/svg">
<path d="M16.2875 8.87926C16.2875 9.25583 16.1528 9.61984 15.901 9.88344C15.655 10.1533 15.3153 10.3039 14.9639 10.3039H9.66947V15.9776C9.66947 16.3542 9.52891 16.7182 9.27707 16.9818C9.03109 17.2454 8.69726 17.396 8.34586 17.396C7.99446 17.396 7.65477 17.2454 7.40879 16.9818C7.15695 16.7182 7.01639 16.3542 7.01639 15.9776V10.3039H1.72193C1.37053 10.3039 1.03084 10.1533 0.784859 9.88344C0.538877 9.61984 0.398316 9.25583 0.398316 8.87926C0.398316 8.50269 0.538877 8.14494 0.784859 7.87507C1.03084 7.61147 1.37053 7.46084 1.72193 7.46084H7.01639V1.78719C7.01639 1.41062 7.15695 1.0466 7.40879 0.783C7.65477 0.513124 7.99446 0.362496 8.34586 0.362496C8.69726 0.362496 9.03109 0.513124 9.27707 0.783C9.52891 1.0466 9.66947 1.41062 9.66947 1.78719V7.46084H14.9639C15.3153 7.46084 15.655 7.61147 15.901 7.87507C16.1528 8.14494 16.2875 8.50269 16.2875 8.87926Z" fill="white"/>
</svg>
