<svg width="14" height="8" viewBox="0 0 14 8" fill="none" xmlns="http://www.w3.org/2000/svg">
<path d="M12.1225 0.5671C12.3083 0.402824 12.5526 0.311559 12.8068 0.320686C13.0609 0.320686 13.2955 0.41195 13.4812 0.585353C13.6571 0.749629 13.7646 0.977791 13.7646 1.21508C13.7646 1.45237 13.6767 1.68053 13.5007 1.85393L7.96841 7.01951C7.88044 7.10165 7.77292 7.16554 7.65563 7.21117C7.53833 7.2568 7.41126 7.28418 7.2842 7.28418C7.15713 7.28418 7.03006 7.2568 6.90299 7.21117C6.7857 7.16554 6.67818 7.10165 6.59021 7.01951L1.05788 1.85393C0.969911 1.77179 0.891716 1.6714 0.842844 1.56189C0.793971 1.44324 0.764648 1.3246 0.764648 1.20595C0.764648 1.08731 0.784197 0.959539 0.833069 0.850021C0.881941 0.740503 0.960137 0.640112 1.04811 0.548848C1.13608 0.46671 1.25337 0.402824 1.37066 0.357192C1.48796 0.302433 1.61502 0.28418 1.75187 0.28418C1.87893 0.28418 2.006 0.31156 2.12329 0.357192C2.24059 0.402824 2.34811 0.475836 2.44585 0.567101L7.2842 5.0847L8.19322 4.22681L12.1225 0.5671Z" fill="#7C7C7C"/>
</svg>
