<svg width="269" height="68" viewBox="0 0 269 68" fill="none" xmlns="http://www.w3.org/2000/svg">
<path fill-rule="evenodd" clip-rule="evenodd" d="M37.9906 5.65117C38.2637 3.21173 36.5343 1.00895 34.0948 0.73588C31.6554 0.444604 29.4526 2.19226 29.1795 4.6317C28.8518 7.41703 29.307 10.7485 29.8895 14.171C31.5097 14.6625 33.0754 15.3725 34.5317 16.2099C36.0973 12.5144 37.6265 8.85521 37.9906 5.65117ZM55.1213 16.3556C54.1565 14.0982 51.535 13.0787 49.2776 14.0436C46.3102 15.3361 43.2336 17.8666 40.1388 20.4699C41.3039 21.6168 42.3962 22.9093 43.3246 24.3111C46.8382 23.8742 50.2061 23.3462 52.8093 22.2175C55.0667 21.2163 56.1044 18.5948 55.1213 16.3556ZM47.6392 4.44965C45.6731 2.99327 42.8877 3.39378 41.4313 5.35989C39.2104 8.34548 37.7176 12.8056 36.0973 17.1566C36.6435 17.5207 37.1532 17.8848 37.6447 18.2671C38.0088 18.5584 38.3911 18.8678 38.7734 19.1773C42.4872 16.3738 46.3466 13.6431 48.5676 10.6575C50.024 8.69137 49.6053 5.90604 47.6392 4.44965Z" fill="white"/>
<path d="M39.1921 40.0946C37.8268 41.5692 36.3704 42.9346 34.823 44.2635C32.6566 46.1386 30.4538 47.9591 28.2147 49.7067C25.8116 48.2322 24.0822 47.4858 23.7909 47.8681C23.536 48.2139 24.5373 49.4883 26.3396 51.1449C20.2956 55.6415 13.9057 59.6101 7.04249 62.8688C5.96841 63.3785 4.83971 63.7426 3.72922 64.1431C3.43794 64.2524 3.12846 64.2524 3.00103 64.2706C1.25337 64.4708 0.725432 63.9975 0.798252 62.3955C1.01671 57.4074 2.56412 52.7287 4.16614 48.0683C4.60305 46.794 5.05817 45.5196 5.53149 44.2453C7.95273 45.7199 9.68218 46.4845 9.97346 46.1022C10.2829 45.6835 8.82656 44.0086 6.38712 41.9151C8.13478 37.4003 10.0827 32.9583 12.3765 28.6984C16.9641 32.1027 21.042 34.3419 21.4971 33.7229C21.9522 33.104 18.5843 29.8089 13.9421 26.3682L13.7419 26.2226C14.5429 24.8572 15.3803 23.4919 16.2723 22.1629C17.3828 20.4881 18.7482 18.9589 20.0953 17.4661C21.8976 15.4818 24.2278 14.8082 26.8311 15.3907C35.1689 17.2476 40.958 22.0355 43.6887 30.2458C44.2349 31.9207 43.7433 33.5591 42.8877 35.0701C42.3052 36.0896 41.668 37.0544 40.958 37.9647C36.5524 34.7424 32.7294 32.6671 32.2925 33.2496C31.8738 33.8322 34.914 36.836 39.1921 40.0946Z" fill="white"/>
<path d="M92.8962 10.4114C87.1253 10.4114 83.3751 12.7235 81.0995 17.1108H80.9721V14.3801C80.9721 12.414 79.37 10.8302 77.4039 10.8302C75.4378 10.8302 73.854 12.414 73.854 14.3801V44.5818C73.854 46.5479 75.4378 48.15 77.4039 48.15H77.7498C79.7159 48.15 81.3179 46.5479 81.3179 44.5818V26.5955C81.3179 20.7153 84.6858 16.8013 90.3111 16.8013C95.7725 16.8013 98.394 19.969 98.394 25.6306V44.5818C98.394 46.5479 99.9779 48.15 101.944 48.15H102.29C104.256 48.15 105.84 46.5479 105.84 44.5818V24.2289C105.84 15.6362 101.143 10.4114 92.8962 10.4114Z" fill="white"/>
<path d="M128.869 10.3386C118.437 10.3386 111.629 17.9482 111.629 29.6175C111.629 41.305 118.365 48.5869 129.178 48.5869C135.878 48.5869 141.412 45.6195 143.906 40.9955C144.834 39.3024 143.56 37.2089 141.63 37.2089H139.737C138.79 37.2089 137.971 37.755 137.48 38.5742C136.042 41.0501 133.02 42.5429 129.324 42.5429C123.207 42.5429 119.147 38.283 119.147 31.8203V31.3834H142.996C144.416 31.3834 145.581 30.2182 145.581 28.7983V28.7619C145.581 17.4567 139.118 10.3386 128.869 10.3386ZM119.184 26.0858C119.603 20.3513 123.48 16.419 128.851 16.419C134.276 16.419 137.953 20.2784 138.117 26.0858H119.184Z" fill="white"/>
<path d="M180.297 35.6069H178.313C177.239 35.6069 176.311 36.2804 175.91 37.2817C174.617 40.5768 171.668 42.3426 167.481 42.3426C161.492 42.3426 157.45 37.5184 157.45 29.4901C157.45 21.6438 161.437 16.6375 167.445 16.6375C171.778 16.6375 174.672 18.7856 175.855 21.844C176.256 22.8635 177.184 23.5735 178.295 23.5735H180.279C182.009 23.5735 183.301 21.8805 182.737 20.242C180.825 14.6167 175.364 10.3386 167.372 10.3386C156.831 10.3386 149.877 17.8754 149.877 29.4901C149.877 41.305 156.85 48.5869 167.445 48.5869C175.036 48.5869 180.68 44.8731 182.755 38.993C183.338 37.3363 182.063 35.6069 180.297 35.6069Z" fill="white"/>
<path d="M202.653 42.288C202.525 42.2698 202.38 42.2516 202.252 42.2516C199.795 41.9603 198.648 40.4311 198.648 37.5548V16.7103H202.853C204.491 16.7103 205.802 15.3814 205.802 13.7611C205.802 12.1409 204.491 10.8302 202.853 10.8302H198.648V6.15153C198.648 5.13206 198.229 4.20361 197.555 3.53004C196.882 2.85646 195.972 2.43775 194.934 2.43775C192.895 2.43775 191.238 4.11259 191.238 6.15153V10.8302H189.017C187.397 10.8302 186.068 12.1409 186.068 13.7611C186.068 15.3814 187.397 16.7103 189.017 16.7103H191.238V38.3194C191.238 45.5285 194.115 48.3866 201.579 48.3866C201.597 48.3866 201.615 48.3866 201.615 48.3866C202.471 48.3866 203.254 48.1318 203.909 47.6766C203.927 47.6766 203.945 47.6584 203.945 47.6584C204.71 47.1123 205.22 46.2203 205.22 45.219C205.22 43.7262 204.109 42.4701 202.653 42.288Z" fill="white"/>
<path d="M226.865 10.3386C221.04 10.3386 216.234 12.7052 213.776 16.3644C213.375 16.9834 213.175 17.6569 213.175 18.3123C213.175 20.1328 214.632 21.8258 216.689 21.8258C217.89 21.8258 219.037 21.1887 219.601 20.1328C220.803 17.8754 223.37 16.4918 226.665 16.4918C231.653 16.4918 234.493 18.8403 234.493 23.1002V23.5553C234.493 24.9207 233.437 26.0493 232.072 26.1222L224.426 26.5591C215.214 27.1416 210.171 30.9282 210.171 37.4638C210.171 44.1267 215.323 48.5141 222.787 48.5141C227.866 48.5141 232.509 45.9836 234.566 41.9239H234.73V44.5818C234.73 45.5649 235.13 46.4569 235.767 47.1123C236.423 47.7495 237.315 48.15 238.298 48.15C240.264 48.15 241.848 46.5479 241.848 44.5818V22.554C241.848 15.1629 235.968 10.3386 226.865 10.3386ZM234.493 34.1323C234.493 39.0294 230.306 42.5793 224.772 42.5793C220.475 42.5793 217.69 40.5221 217.69 37.3181C217.69 34.023 220.348 32.1297 225.427 31.8203L234.493 31.2013V34.1323Z" fill="white"/>
<path d="M265.605 10.4479C261.199 10.4479 257.777 12.9601 256.594 17.1108H256.466V14.3801C256.466 12.414 254.864 10.8302 252.916 10.8302C250.95 10.8302 249.348 12.414 249.348 14.3801V44.418C249.348 45.4374 249.767 46.3841 250.44 47.0577C251.114 47.7312 252.042 48.15 253.08 48.15C255.137 48.15 256.812 46.4751 256.812 44.418V25.8855C256.812 20.6243 259.907 17.22 264.822 17.22C265.022 17.22 265.241 17.22 265.441 17.2382C266.97 17.2929 268.208 16.0367 268.208 14.5075V13.0693C268.208 11.6312 267.043 10.4479 265.605 10.4479Z" fill="white"/>
<path d="M205.22 45.219C205.22 46.2203 204.71 47.1123 203.945 47.6584C203.945 47.6584 203.927 47.6766 203.909 47.6766C203.436 48.0043 202.871 48.1864 202.252 48.1864C200.596 48.1864 199.267 46.8574 199.267 45.219C199.267 43.5806 200.596 42.2516 202.252 42.2516C202.38 42.2516 202.525 42.2698 202.653 42.288C204.109 42.4701 205.22 43.7262 205.22 45.219Z" fill="white"/>
<path d="M82.8559 63.4318C82.1372 64.1411 81.2646 64.4958 80.2379 64.4958C79.2112 64.4958 78.3386 64.1411 77.6199 63.4318C76.9106 62.7225 76.5559 61.8498 76.5559 60.8138C76.5559 59.7778 76.9106 58.9051 77.6199 58.1958C78.3386 57.4865 79.2112 57.1318 80.2379 57.1318C81.2646 57.1318 82.1372 57.4865 82.8559 58.1958C83.5746 58.9051 83.9339 59.7778 83.9339 60.8138C83.9339 61.8498 83.5746 62.7225 82.8559 63.4318ZM80.2379 63.3058C80.9379 63.3058 81.5259 63.0678 82.0019 62.5918C82.4779 62.1158 82.7159 61.5231 82.7159 60.8138C82.7159 60.1045 82.4779 59.5118 82.0019 59.0358C81.5259 58.5598 80.9379 58.3218 80.2379 58.3218C79.5472 58.3218 78.9639 58.5598 78.4879 59.0358C78.0119 59.5118 77.7739 60.1045 77.7739 60.8138C77.7739 61.5231 78.0119 62.1158 78.4879 62.5918C78.9639 63.0678 79.5472 63.3058 80.2379 63.3058Z" fill="white"/>
<path d="M94.3558 57.1318C95.1771 57.1318 95.8351 57.3931 96.3298 57.9158C96.8245 58.4291 97.0718 59.1291 97.0718 60.0158V64.3138H95.8538V60.0858C95.8538 59.5165 95.6998 59.0778 95.3918 58.7698C95.0838 58.4525 94.6591 58.2938 94.1178 58.2938C93.5111 58.2938 93.0211 58.4851 92.6478 58.8678C92.2745 59.2411 92.0878 59.8198 92.0878 60.6038V64.3138H90.8698V57.3138H92.0878V58.3218C92.5825 57.5285 93.3385 57.1318 94.3558 57.1318Z" fill="white"/>
<path d="M104.272 64.3138V54.0938H105.49V64.3138H104.272Z" fill="white"/>
<path d="M113.464 56.0398C113.231 56.0398 113.035 55.9605 112.876 55.8018C112.718 55.6431 112.638 55.4518 112.638 55.2278C112.638 55.0038 112.718 54.8125 112.876 54.6538C113.035 54.4858 113.231 54.4018 113.464 54.4018C113.688 54.4018 113.88 54.4858 114.038 54.6538C114.197 54.8125 114.276 55.0038 114.276 55.2278C114.276 55.4518 114.197 55.6431 114.038 55.8018C113.88 55.9605 113.688 56.0398 113.464 56.0398ZM112.848 64.3138V57.3138H114.066V64.3138H112.848Z" fill="white"/>
<path d="M124.91 57.1318C125.732 57.1318 126.39 57.3931 126.884 57.9158C127.379 58.4291 127.626 59.1291 127.626 60.0158V64.3138H126.408V60.0858C126.408 59.5165 126.254 59.0778 125.946 58.7698C125.638 58.4525 125.214 58.2938 124.672 58.2938C124.066 58.2938 123.576 58.4851 123.202 58.8678C122.829 59.2411 122.642 59.8198 122.642 60.6038V64.3138H121.424V57.3138H122.642V58.3218C123.137 57.5285 123.893 57.1318 124.91 57.1318Z" fill="white"/>
<path d="M135.681 61.3738C135.802 61.9991 136.087 62.4845 136.535 62.8298C136.992 63.1751 137.552 63.3478 138.215 63.3478C139.139 63.3478 139.811 63.0071 140.231 62.3258L141.267 62.9138C140.585 63.9685 139.559 64.4958 138.187 64.4958C137.076 64.4958 136.171 64.1505 135.471 63.4598C134.78 62.7598 134.435 61.8778 134.435 60.8138C134.435 59.7591 134.775 58.8818 135.457 58.1818C136.138 57.4818 137.02 57.1318 138.103 57.1318C139.129 57.1318 139.965 57.4958 140.609 58.2238C141.262 58.9425 141.589 59.8105 141.589 60.8278C141.589 61.0051 141.575 61.1871 141.547 61.3738H135.681ZM138.103 58.2798C137.449 58.2798 136.908 58.4665 136.479 58.8398C136.049 59.2038 135.783 59.6938 135.681 60.3098H140.357C140.254 59.6471 139.993 59.1431 139.573 58.7978C139.153 58.4525 138.663 58.2798 138.103 58.2798Z" fill="white"/>
<path d="M163.299 57.3138H164.503V64.0198C164.503 65.0558 164.153 65.8585 163.453 66.4278C162.753 67.0065 161.913 67.2958 160.933 67.2958C160.149 67.2958 159.472 67.1465 158.903 66.8478C158.334 66.5585 157.904 66.1385 157.615 65.5878L158.679 64.9858C159.062 65.7698 159.822 66.1618 160.961 66.1618C161.689 66.1618 162.258 65.9705 162.669 65.5878C163.089 65.2051 163.299 64.6825 163.299 64.0198V63.0258C162.683 63.9591 161.806 64.4258 160.667 64.4258C159.668 64.4258 158.824 64.0711 158.133 63.3618C157.442 62.6525 157.097 61.7891 157.097 60.7718C157.097 59.7545 157.442 58.8958 158.133 58.1958C158.824 57.4865 159.668 57.1318 160.667 57.1318C161.815 57.1318 162.692 57.5938 163.299 58.5178V57.3138ZM159.029 62.5498C159.505 63.0258 160.098 63.2638 160.807 63.2638C161.516 63.2638 162.109 63.0258 162.585 62.5498C163.061 62.0738 163.299 61.4811 163.299 60.7718C163.299 60.0718 163.061 59.4838 162.585 59.0078C162.109 58.5318 161.516 58.2938 160.807 58.2938C160.098 58.2938 159.505 58.5318 159.029 59.0078C158.553 59.4838 158.315 60.0718 158.315 60.7718C158.315 61.4811 158.553 62.0738 159.029 62.5498Z" fill="white"/>
<path d="M173.066 58.4898C173.468 57.6218 174.196 57.1878 175.25 57.1878V58.4618C174.653 58.4338 174.14 58.5925 173.71 58.9378C173.281 59.2831 173.066 59.8385 173.066 60.6038V64.3138H171.848V57.3138H173.066V58.4898Z" fill="white"/>
<path d="M187.467 63.4318C186.749 64.1411 185.876 64.4958 184.849 64.4958C183.823 64.4958 182.95 64.1411 182.231 63.4318C181.522 62.7225 181.167 61.8498 181.167 60.8138C181.167 59.7778 181.522 58.9051 182.231 58.1958C182.95 57.4865 183.823 57.1318 184.849 57.1318C185.876 57.1318 186.749 57.4865 187.467 58.1958C188.186 58.9051 188.545 59.7778 188.545 60.8138C188.545 61.8498 188.186 62.7225 187.467 63.4318ZM184.849 63.3058C185.549 63.3058 186.137 63.0678 186.613 62.5918C187.089 62.1158 187.327 61.5231 187.327 60.8138C187.327 60.1045 187.089 59.5118 186.613 59.0358C186.137 58.5598 185.549 58.3218 184.849 58.3218C184.159 58.3218 183.575 58.5598 183.099 59.0358C182.623 59.5118 182.385 60.1045 182.385 60.8138C182.385 61.5231 182.623 62.1158 183.099 62.5918C183.575 63.0678 184.159 63.3058 184.849 63.3058Z" fill="white"/>
<path d="M198.771 64.4958C197.716 64.4958 196.839 64.1458 196.139 63.4458C195.439 62.7365 195.089 61.8591 195.089 60.8138C195.089 59.7685 195.439 58.8958 196.139 58.1958C196.839 57.4865 197.716 57.1318 198.771 57.1318C199.462 57.1318 200.082 57.2998 200.633 57.6358C201.184 57.9625 201.594 58.4058 201.865 58.9658L200.843 59.5538C200.666 59.1805 200.39 58.8818 200.017 58.6578C199.653 58.4338 199.238 58.3218 198.771 58.3218C198.071 58.3218 197.483 58.5598 197.007 59.0358C196.54 59.5118 196.307 60.1045 196.307 60.8138C196.307 61.5138 196.54 62.1018 197.007 62.5778C197.483 63.0538 198.071 63.2918 198.771 63.2918C199.238 63.2918 199.658 63.1845 200.031 62.9698C200.404 62.7458 200.689 62.4471 200.885 62.0738L201.921 62.6758C201.622 63.2265 201.193 63.6698 200.633 64.0058C200.073 64.3325 199.452 64.4958 198.771 64.4958Z" fill="white"/>
<path d="M209.382 61.3738C209.503 61.9991 209.788 62.4845 210.236 62.8298C210.693 63.1751 211.253 63.3478 211.916 63.3478C212.84 63.3478 213.512 63.0071 213.932 62.3258L214.968 62.9138C214.287 63.9685 213.26 64.4958 211.888 64.4958C210.777 64.4958 209.872 64.1505 209.172 63.4598C208.481 62.7598 208.136 61.8778 208.136 60.8138C208.136 59.7591 208.477 58.8818 209.158 58.1818C209.839 57.4818 210.721 57.1318 211.804 57.1318C212.831 57.1318 213.666 57.4958 214.31 58.2238C214.963 58.9425 215.29 59.8105 215.29 60.8278C215.29 61.0051 215.276 61.1871 215.248 61.3738H209.382ZM211.804 58.2798C211.151 58.2798 210.609 58.4665 210.18 58.8398C209.751 59.2038 209.485 59.6938 209.382 60.3098H214.058C213.955 59.6471 213.694 59.1431 213.274 58.7978C212.854 58.4525 212.364 58.2798 211.804 58.2798Z" fill="white"/>
<path d="M223.408 58.4898C223.809 57.6218 224.537 57.1878 225.592 57.1878V58.4618C224.995 58.4338 224.481 58.5925 224.052 58.9378C223.623 59.2831 223.408 59.8385 223.408 60.6038V64.3138H222.19V57.3138H223.408V58.4898Z" fill="white"/>
<path d="M232.9 56.0398C232.667 56.0398 232.471 55.9605 232.312 55.8018C232.153 55.6431 232.074 55.4518 232.074 55.2278C232.074 55.0038 232.153 54.8125 232.312 54.6538C232.471 54.4858 232.667 54.4018 232.9 54.4018C233.124 54.4018 233.315 54.4858 233.474 54.6538C233.633 54.8125 233.712 55.0038 233.712 55.2278C233.712 55.4518 233.633 55.6431 233.474 55.8018C233.315 55.9605 233.124 56.0398 232.9 56.0398ZM232.284 64.3138V57.3138H233.502V64.3138H232.284Z" fill="white"/>
<path d="M241.714 61.3738C241.835 61.9991 242.12 62.4845 242.568 62.8298C243.025 63.1751 243.585 63.3478 244.248 63.3478C245.172 63.3478 245.844 63.0071 246.264 62.3258L247.3 62.9138C246.619 63.9685 245.592 64.4958 244.22 64.4958C243.109 64.4958 242.204 64.1505 241.504 63.4598C240.813 62.7598 240.468 61.8778 240.468 60.8138C240.468 59.7591 240.809 58.8818 241.49 58.1818C242.171 57.4818 243.053 57.1318 244.136 57.1318C245.163 57.1318 245.998 57.4958 246.642 58.2238C247.295 58.9425 247.622 59.8105 247.622 60.8278C247.622 61.0051 247.608 61.1871 247.58 61.3738H241.714ZM244.136 58.2798C243.483 58.2798 242.941 58.4665 242.512 58.8398C242.083 59.2038 241.817 59.6938 241.714 60.3098H246.39C246.287 59.6471 246.026 59.1431 245.606 58.7978C245.186 58.4525 244.696 58.2798 244.136 58.2798Z" fill="white"/>
<path d="M258.125 58.4898H256.263V62.2838C256.263 62.6291 256.328 62.8765 256.459 63.0258C256.599 63.1658 256.809 63.2405 257.089 63.2498C257.369 63.2498 257.714 63.2405 258.125 63.2218V64.3138C257.061 64.4538 256.282 64.3698 255.787 64.0618C255.292 63.7445 255.045 63.1518 255.045 62.2838V58.4898H253.659V57.3138H255.045V55.7178L256.263 55.3538V57.3138H258.125V58.4898Z" fill="white"/>
</svg>
