<svg width="18" height="18" viewBox="0 0 18 18" fill="none" xmlns="http://www.w3.org/2000/svg">
<path d="M17.9821 8.56339C17.9821 8.93941 17.8326 9.30289 17.5531 9.56611C17.28 9.83559 16.903 9.98599 16.5129 9.98599H10.636V15.6514C10.636 16.0274 10.48 16.3909 10.2005 16.6541C9.92741 16.9173 9.55686 17.0677 9.1668 17.0677C8.77674 17.0677 8.39968 16.9173 8.12664 16.6541C7.8471 16.3909 7.69108 16.0274 7.69108 15.6514V9.98599H1.81419C1.42413 9.98599 1.04708 9.83559 0.774035 9.56611C0.500994 9.30289 0.344971 8.93941 0.344971 8.56339C0.344971 8.18737 0.500994 7.83015 0.774035 7.56067C1.04708 7.29746 1.42413 7.14705 1.81419 7.14705H7.69108V1.48169C7.69108 1.10567 7.8471 0.742184 8.12664 0.47897C8.39968 0.20949 8.77674 0.059082 9.1668 0.059082C9.55686 0.059082 9.92741 0.20949 10.2005 0.47897C10.48 0.742184 10.636 1.10567 10.636 1.48169V7.14705H16.5129C16.903 7.14705 17.28 7.29746 17.5531 7.56067C17.8326 7.83015 17.9821 8.18737 17.9821 8.56339Z" fill="white"/>
</svg>
