<svg width="18" height="18" viewBox="0 0 18 18" fill="none" xmlns="http://www.w3.org/2000/svg">
<path d="M17.3547 8.66076C17.3547 9.03681 17.2105 9.40033 16.9409 9.66356C16.6776 9.93307 16.3139 10.0835 15.9378 10.0835H10.2698V15.7493C10.2698 16.1254 10.1194 16.4889 9.84976 16.7521C9.58643 17.0153 9.22905 17.1658 8.85286 17.1658C8.47667 17.1658 8.11302 17.0153 7.84969 16.7521C7.58009 16.4889 7.42961 16.1254 7.42961 15.7493V10.0835H1.7617C1.38552 10.0835 1.02187 9.93307 0.758534 9.66356C0.495202 9.40033 0.344727 9.03681 0.344727 8.66076C0.344727 8.28471 0.495202 7.92746 0.758534 7.65796C1.02187 7.39473 1.38552 7.24431 1.7617 7.24431H7.42961V1.57848C7.42961 1.20243 7.58009 0.838919 7.84969 0.575684C8.11302 0.306182 8.47667 0.155762 8.85286 0.155762C9.22905 0.155762 9.58643 0.306182 9.84976 0.575684C10.1194 0.838919 10.2698 1.20243 10.2698 1.57848V7.24431H15.9378C16.3139 7.24431 16.6776 7.39473 16.9409 7.65796C17.2105 7.92746 17.3547 8.28471 17.3547 8.66076Z" fill="white"/>
</svg>
