<svg width="16" height="16" viewBox="0 0 16 16" fill="none" xmlns="http://www.w3.org/2000/svg">
<path d="M14.6813 13.1992L14.6803 13.1983L10.106 8.96552L10.1057 8.9653L9.07366 8.0228L14.6803 2.84777C14.7978 2.73927 14.8938 2.61818 14.9543 2.48414C15.0138 2.35245 15.05 2.20857 15.05 2.06345C15.05 1.91152 15.0266 1.76618 14.9536 1.6306C14.8948 1.50077 14.8117 1.36885 14.7031 1.26861L14.7032 1.26856L14.7011 1.26689C14.5847 1.17014 14.4545 1.08233 14.3107 1.02704C14.1664 0.971556 14.0002 0.95 13.8479 0.95C13.6925 0.95 13.5384 0.983099 13.3862 1.03712L13.3862 1.0371L13.385 1.03757C13.2413 1.09285 13.1105 1.18084 13.004 1.27914L6.54745 7.23868C6.43935 7.33846 6.35574 7.45998 6.29624 7.59179L6.29622 7.59178L6.29566 7.59313C6.23686 7.73423 6.20055 7.87775 6.20055 8.023C6.20055 8.16812 6.2368 8.312 6.29624 8.44368C6.35574 8.57549 6.43935 8.69701 6.54745 8.79679L13.004 14.7563L13.004 14.7563L13.005 14.7572C13.2321 14.9558 13.5294 15.0539 13.8365 15.0539C14.1457 15.0539 14.443 14.9333 14.6575 14.7353C14.8834 14.5267 15.0041 14.2614 15.0044 13.9731C15.0161 13.684 14.8954 13.4078 14.6813 13.1992Z" fill="#B3B3B3" stroke="#B3B3B3" stroke-width="0.1"/>
<path d="M0.568172 2.80476L0.569105 2.80564L5.14346 7.0384L5.1437 7.03862L6.17578 7.98111L0.56915 13.1561C0.451597 13.2646 0.355632 13.3857 0.295121 13.5198C0.235679 13.6515 0.199434 13.7953 0.199434 13.9405C0.199434 14.0924 0.222856 14.2377 0.295861 14.3733C0.354666 14.5031 0.437737 14.6351 0.546335 14.7353L0.546289 14.7354L0.548298 14.737C0.664765 14.8338 0.794974 14.9216 0.938743 14.9769C1.083 15.0324 1.2492 15.0539 1.40158 15.0539C1.55698 15.0539 1.71104 15.0208 1.86319 14.9668L1.8632 14.9668L1.86441 14.9663C2.00817 14.9111 2.13893 14.8231 2.24541 14.7248L8.70199 8.76523C8.81009 8.66545 8.8937 8.54394 8.9532 8.41213L8.95322 8.41214L8.95378 8.41079C9.01258 8.26968 9.04889 8.12616 9.04889 7.98092C9.04889 7.83579 9.01264 7.69191 8.9532 7.56023C8.8937 7.42842 8.81009 7.30691 8.70199 7.20713L2.24542 1.24758L2.24543 1.24757L2.24442 1.24668C2.01738 1.04815 1.72001 0.950032 1.41299 0.950032C1.10371 0.950032 0.806452 1.07066 0.591966 1.26864C0.365993 1.47722 0.245359 1.74255 0.245066 2.03085C0.233334 2.31992 0.354035 2.59612 0.568172 2.80476Z" fill="#B3B3B3" stroke="#B3B3B3" stroke-width="0.1"/>
</svg>
