<svg width="10" height="16" viewBox="0 0 10 16" fill="none" xmlns="http://www.w3.org/2000/svg">
<path d="M0.874992 2.83862L0.874968 2.83864L0.876825 2.84043L5.26848 7.07201L5.26896 7.07247L6.22262 7.97933L0.876916 13.1174C0.760496 13.2293 0.663888 13.3556 0.602572 13.4971C0.543284 13.6338 0.506708 13.7842 0.506708 13.9368C0.506708 14.0928 0.529693 14.246 0.603959 14.3903C0.662016 14.5234 0.744839 14.6609 0.855013 14.7668L0.854918 14.7669L0.858887 14.7704C0.973084 14.8692 1.10307 14.9609 1.24854 15.0191C1.39513 15.0779 1.56191 15.1 1.71284 15.1C1.87002 15.1 2.02434 15.0651 2.17463 15.0096L2.17464 15.0096L2.17713 15.0086C2.32259 14.9504 2.45365 14.8582 2.55971 14.7563L8.7584 8.79841C8.86763 8.69343 8.95146 8.56622 9.01084 8.42925L9.01088 8.42926L9.01193 8.42663C9.07 8.28151 9.10671 8.13184 9.10671 7.97895C9.10671 7.8263 9.07013 7.67594 9.01084 7.53917C8.95146 7.4022 8.86763 7.27499 8.7584 7.17001L2.55971 1.21211L2.55973 1.21209L2.55774 1.21027C2.32918 1.00215 2.0305 0.9 1.72379 0.9C1.41243 0.9 1.11401 1.02633 0.898819 1.23317C0.672546 1.45065 0.551049 1.7282 0.550516 2.02959C0.538982 2.33244 0.660569 2.62108 0.874992 2.83862Z" fill="#181725" stroke="#181725" stroke-width="0.2"/>
</svg>
