<svg width="15" height="13" viewBox="0 0 15 13" fill="none" xmlns="http://www.w3.org/2000/svg">
<path d="M14.3317 6.5C14.3317 9.87357 11.1977 12.6084 7.3317 12.6084C3.4657 12.6084 0.331696 9.87357 0.331696 6.5C0.331696 3.12643 3.4657 0.391608 7.3317 0.391608C11.1977 0.391608 14.3317 3.12643 14.3317 6.5Z" fill="black"/>
<path d="M10.1842 8.64524C10.2626 8.72744 10.3062 8.8356 10.3019 8.94808C10.3019 9.06057 10.2583 9.1644 10.1754 9.2466C10.0969 9.32447 9.98793 9.37206 9.87455 9.37206C9.76118 9.37206 9.65216 9.33313 9.56931 9.25525L7.10122 6.80656C7.06197 6.76762 7.03145 6.72003 7.00965 6.66812C6.98784 6.6162 6.97476 6.55996 6.97476 6.50372C6.97476 6.44748 6.98784 6.39123 7.00965 6.33499C7.03145 6.28308 7.06197 6.23549 7.10122 6.19655L9.56931 3.74786C9.60856 3.70892 9.65652 3.67431 9.70885 3.65268C9.76554 3.63105 9.82222 3.61807 9.87891 3.61807C9.9356 3.61807 9.99665 3.62672 10.049 3.64835C10.1013 3.66998 10.1493 3.70459 10.1929 3.74353C10.2321 3.78247 10.2626 3.83438 10.2844 3.8863C10.3106 3.93822 10.3193 3.99446 10.3193 4.05503C10.3193 4.11127 10.3062 4.16751 10.2844 4.21943C10.2626 4.27134 10.2278 4.31893 10.1842 4.36219L8.02566 6.50372L8.43556 6.90606L10.1842 8.64524Z" fill="white"/>
<path d="M4.81664 4.34478C4.73815 4.26258 4.69454 4.15442 4.69891 4.04194C4.69891 3.92945 4.74251 3.82562 4.82536 3.74342C4.90385 3.66555 5.01287 3.61796 5.12624 3.61796C5.23962 3.61796 5.34863 3.6569 5.43148 3.73477L7.89957 6.18346C7.93882 6.2224 7.96934 6.26999 7.99115 6.3219C8.01295 6.37382 8.02603 6.43006 8.02603 6.4863C8.02603 6.54255 8.01295 6.59879 7.99115 6.65503C7.96934 6.70695 7.93882 6.75454 7.89957 6.79347L5.43148 9.24217C5.39224 9.2811 5.34427 9.31571 5.29194 9.33734C5.23526 9.35898 5.17857 9.37195 5.12188 9.37195C5.06519 9.37195 5.00415 9.3633 4.95182 9.34167C4.89949 9.32004 4.85153 9.28543 4.80792 9.24649C4.76867 9.20755 4.73815 9.15564 4.71635 9.10372C4.69018 9.05181 4.68146 8.99557 4.68146 8.935C4.68146 8.87876 4.69454 8.82251 4.71635 8.7706C4.73815 8.71868 4.77304 8.67109 4.81664 8.62783L6.97513 6.4863L6.56524 6.08396L4.81664 4.34478Z" fill="white"/>
<path d="M7.3317 12.6584C11.2187 12.6584 14.3817 9.90737 14.3817 6.5C14.3817 3.09263 11.2187 0.341608 7.3317 0.341608C3.4447 0.341608 0.281696 3.09263 0.281696 6.5C0.281696 9.90737 3.4447 12.6584 7.3317 12.6584Z" stroke="white" stroke-width="0.1"/>
</svg>
