<svg width="14" height="9" viewBox="0 0 14 9" fill="none" xmlns="http://www.w3.org/2000/svg">
<path d="M11.326 0.470596L11.326 0.470574L11.3243 0.472476L7.49131 4.67788L7.49088 4.67836L6.6781 5.58195L2.03281 0.472567C1.93112 0.360721 1.81573 0.267252 1.68583 0.207722C1.56068 0.150364 1.42255 0.114732 1.28185 0.114732C1.13909 0.114732 0.998047 0.136987 0.865076 0.209222C0.74356 0.265306 0.618018 0.345282 0.521363 0.451592L0.521263 0.451501L0.517961 0.455536C0.428202 0.565232 0.344921 0.690019 0.292076 0.829518C0.238878 0.969949 0.218848 1.12958 0.218848 1.27395C0.218848 1.42428 0.250383 1.57198 0.30073 1.71596L0.300699 1.71597L0.30161 1.71838C0.354439 1.85783 0.438086 1.98373 0.530898 2.08582L5.92754 8.02162C6.0233 8.12695 6.13955 8.208 6.26498 8.26549L6.26496 8.26553L6.26768 8.26668C6.40014 8.32271 6.53756 8.35848 6.6785 8.35848C6.81919 8.35848 6.95732 8.32285 7.08248 8.26549C7.20791 8.208 7.32416 8.12695 7.41992 8.02162L12.8166 2.08582L12.8166 2.08584L12.8183 2.08381C13.0077 1.86392 13.1 1.57758 13.1 1.28443C13.1 0.986857 12.9858 0.700698 12.7975 0.493542C12.5995 0.275718 12.3452 0.157285 12.0677 0.156683C11.7887 0.145526 11.5242 0.264108 11.326 0.470596Z" fill="#181725" stroke="#181725" stroke-width="0.2"/>
</svg>
