<svg width="20" height="20" viewBox="0 0 20 20" fill="none" xmlns="http://www.w3.org/2000/svg">
<path d="M15.4163 7.42681L16.8835 5.95962C18.7563 7.04008 20.0033 8.53318 20.0033 10.1878C20.0033 13.4909 15.0615 16.1612 10.0359 16.1682C9.01325 16.1681 7.99337 16.0612 6.99291 15.8492L8.7342 14.1089C9.15881 14.1528 9.59338 14.1757 10.0329 14.1747H10.0349C9.62129 14.1747 9.2226 14.1119 8.84782 13.9953L10.8224 12.0198C11.2908 11.8184 11.6666 11.4426 11.8689 10.9742L13.8425 8.99965C14.0283 9.59482 14.0719 10.2253 13.9698 10.8404C13.8678 11.4555 13.6229 12.038 13.2549 12.5413C12.8868 13.0446 12.4058 13.4545 11.8506 13.7382C11.2954 14.0219 10.6814 14.1714 10.0579 14.1747C14.289 14.1597 18.0098 11.9978 18.0098 10.1878C18.0098 9.24784 16.9911 8.20825 15.4163 7.42681ZM6.14469 11.0599C6.01406 10.4772 6.01599 9.87264 6.15033 9.2908C6.28467 8.70897 6.54799 8.16474 6.92085 7.69831C7.29371 7.23187 7.76658 6.85516 8.30454 6.59597C8.8425 6.33678 9.43181 6.20174 10.029 6.20083C5.82474 6.18588 2.06207 8.37171 2.06207 10.1878C2.06207 11.0808 2.96312 12.0586 4.38147 12.8231L2.92823 14.2744C1.1989 13.2059 0.0686035 11.7676 0.0686035 10.1878C0.0686035 6.88459 5.03632 4.19042 10.0359 4.20736C10.9469 4.21035 11.857 4.30105 12.7361 4.46851L10.9649 6.2387C10.6758 6.21677 10.3828 6.20382 10.0878 6.20083C10.3688 6.20481 10.6429 6.23771 10.9081 6.29651L6.14369 11.0599H6.14469ZM19.0982 0.925121C19.2851 1.11204 19.3901 1.36551 19.3901 1.62981C19.3901 1.89411 19.2851 2.14759 19.0982 2.3345L2.18367 19.2491C2.09179 19.3443 1.98186 19.4203 1.86029 19.4726C1.73873 19.525 1.60795 19.5526 1.47561 19.5538C1.34327 19.555 1.212 19.5299 1.08947 19.4799C0.966944 19.4299 0.855606 19.3559 0.761955 19.2624C0.668304 19.1689 0.594215 19.0577 0.544012 18.9352C0.493809 18.8127 0.468496 18.6815 0.469552 18.5492C0.470607 18.4168 0.498009 18.286 0.550159 18.1644C0.602309 18.0427 0.678163 17.9327 0.773294 17.8407L17.6878 0.926117C17.7804 0.833445 17.8903 0.759927 18.0113 0.709767C18.1323 0.659607 18.2621 0.633789 18.393 0.633789C18.524 0.633789 18.6537 0.659607 18.7747 0.709767C18.8957 0.759927 19.0057 0.833445 19.0982 0.926117V0.925121Z" fill="#7C7C7C"/>
</svg>
