<svg width="16" height="18" viewBox="0 0 16 18" fill="none" xmlns="http://www.w3.org/2000/svg">
<path d="M15.3715 9C15.3715 9.37606 15.2465 9.73959 15.0128 10.0028C14.7846 10.2723 14.4694 10.4228 14.1434 10.4228H9.23085V16.0888C9.23085 16.4648 9.10043 16.8284 8.86676 17.0916C8.63852 17.3549 8.32877 17.5053 8.00272 17.5053C7.67666 17.5053 7.36148 17.3549 7.13324 17.0916C6.89957 16.8284 6.76915 16.4648 6.76915 16.0888V10.4228H1.85663C1.53058 10.4228 1.21539 10.2723 0.987154 10.0028C0.758918 9.73959 0.628497 9.37606 0.628497 9C0.628497 8.62394 0.758918 8.26668 0.987154 7.99717C1.21539 7.73392 1.53058 7.5835 1.85663 7.5835H6.76915V1.91749C6.76915 1.54143 6.89957 1.1779 7.13324 0.914659C7.36148 0.645147 7.67666 0.494722 8.00272 0.494722C8.32877 0.494722 8.63852 0.645147 8.86676 0.914659C9.10043 1.1779 9.23085 1.54143 9.23085 1.91749V7.5835H14.1434C14.4694 7.5835 14.7846 7.73392 15.0128 7.99717C15.2465 8.26668 15.3715 8.62394 15.3715 9Z" fill="#53B175"/>
</svg>
