<svg width="8" height="14" viewBox="0 0 8 14" fill="none" xmlns="http://www.w3.org/2000/svg">
<path d="M0.319946 1.76842C0.134171 1.56842 0.0309634 1.30526 0.0412841 1.03158C0.0412841 0.757895 0.144492 0.505263 0.340588 0.305263C0.526363 0.115789 0.784383 -2.48932e-08 1.05272 0C1.32107 2.48933e-08 1.57909 0.0947381 1.77518 0.284211L7.61677 6.24211C7.70965 6.33684 7.7819 6.45263 7.8335 6.57895C7.88511 6.70526 7.91607 6.84211 7.91607 6.97895C7.91607 7.11579 7.88511 7.25263 7.8335 7.38947C7.7819 7.51579 7.70965 7.63158 7.61677 7.72632L1.77518 13.6842C1.68229 13.7789 1.56876 13.8632 1.44491 13.9158C1.31074 13.9684 1.17657 14 1.0424 14C0.908232 14 0.76374 13.9789 0.639891 13.9263C0.516041 13.8737 0.402512 13.7895 0.299303 13.6947C0.206416 13.6 0.13417 13.4737 0.0825662 13.3474C0.0206413 13.2211 -1.21411e-08 13.0842 0 12.9368C1.12739e-08 12.8 0.0309625 12.6632 0.0825663 12.5368C0.134171 12.4105 0.216737 12.2947 0.319945 12.1895L5.42875 6.97895L4.4586 6L0.319946 1.76842Z" fill="#181725"/>
</svg>
