<svg width="18" height="18" viewBox="0 0 18 18" fill="none" xmlns="http://www.w3.org/2000/svg">
<path d="M17.9821 8.66055C17.9821 9.03657 17.8326 9.40006 17.5531 9.66327C17.28 9.93275 16.903 10.0832 16.5129 10.0832H10.636V15.7485C10.636 16.1245 10.48 16.488 10.2005 16.7512C9.92741 17.0145 9.55686 17.1649 9.1668 17.1649C8.77674 17.1649 8.39968 17.0145 8.12664 16.7512C7.8471 16.488 7.69108 16.1245 7.69108 15.7485V10.0832H1.81419C1.42413 10.0832 1.04708 9.93275 0.774035 9.66327C0.500994 9.40006 0.344971 9.03657 0.344971 8.66055C0.344971 8.28454 0.500994 7.92732 0.774035 7.65784C1.04708 7.39462 1.42413 7.24422 1.81419 7.24422H7.69108V1.57886C7.69108 1.20284 7.8471 0.839352 8.12664 0.576138C8.39968 0.306658 8.77674 0.15625 9.1668 0.15625C9.55686 0.15625 9.92741 0.306658 10.2005 0.576138C10.48 0.839352 10.636 1.20284 10.636 1.57886V7.24422H16.5129C16.903 7.24422 17.28 7.39462 17.5531 7.65784C17.8326 7.92732 17.9821 8.28454 17.9821 8.66055Z" fill="white"/>
</svg>
