<svg width="16" height="20" viewBox="0 0 16 20" fill="none" xmlns="http://www.w3.org/2000/svg">
<path fill-rule="evenodd" clip-rule="evenodd" d="M10.9802 1.52942C10.065 1.13424 9.08001 0.926269 8.08321 0.917773C7.07971 0.902234 6.08354 1.09106 5.15533 1.47275C4.22713 1.85444 3.3863 2.42102 2.68402 3.138C1.25813 4.582 0.451061 6.52481 0.434103 8.55409C0.417146 10.5834 1.19163 12.5394 2.59319 14.007L7.19512 18.7704C7.28774 18.8676 7.39882 18.9453 7.52185 18.9991C7.64489 19.0528 7.77741 19.0814 7.91165 19.0833C8.04569 19.0863 8.17886 19.0609 8.30237 19.0087C8.42588 18.9565 8.53692 18.8788 8.62817 18.7805L13.3108 14.0878C14.7381 12.6451 15.547 10.703 15.5658 8.67372C15.5847 6.64443 14.812 4.68767 13.4118 3.21874C12.7221 2.49899 11.8953 1.9246 10.9802 1.52942ZM7.92146 11.2274C9.2705 11.2274 10.3641 10.1338 10.3641 8.78476C10.3641 7.43572 9.2705 6.34211 7.92146 6.34211C6.57242 6.34211 5.47881 7.43573 5.47881 8.78476C5.47881 10.1338 6.57242 11.2274 7.92146 11.2274Z" fill="#4C4F4D"/>
</svg>
