<svg width="18" height="18" viewBox="0 0 18 18" fill="none" xmlns="http://www.w3.org/2000/svg">
<path d="M17.8542 8.56339C17.8542 8.93941 17.7047 9.30289 17.4251 9.56611C17.1521 9.83559 16.775 9.98599 16.385 9.98599H10.5081V15.6514C10.5081 16.0274 10.3521 16.3909 10.0725 16.6541C9.79948 16.9173 9.42893 17.0677 9.03887 17.0677C8.64881 17.0677 8.27175 16.9173 7.99871 16.6541C7.71917 16.3909 7.56315 16.0274 7.56315 15.6514V9.98599H1.68626C1.2962 9.98599 0.919147 9.83559 0.646106 9.56611C0.373064 9.30289 0.217041 8.93941 0.217041 8.56339C0.217041 8.18737 0.373064 7.83015 0.646106 7.56067C0.919147 7.29746 1.2962 7.14705 1.68626 7.14705H7.56315V1.48169C7.56315 1.10567 7.71917 0.742184 7.99871 0.47897C8.27175 0.20949 8.64881 0.059082 9.03887 0.059082C9.42893 0.059082 9.79948 0.20949 10.0725 0.47897C10.3521 0.742184 10.5081 1.10567 10.5081 1.48169V7.14705H16.385C16.775 7.14705 17.1521 7.29746 17.4251 7.56067C17.7047 7.83015 17.8542 8.18737 17.8542 8.56339Z" fill="white"/>
</svg>
