<svg width="16" height="12" viewBox="0 0 16 12" fill="none" xmlns="http://www.w3.org/2000/svg">
<path fill-rule="evenodd" clip-rule="evenodd" d="M14.5515 3.18998C14.7879 2.96148 14.9255 2.63297 14.9255 2.28325C14.9255 1.94762 14.782 1.63059 14.5353 1.39215C14.2798 1.14519 13.953 1.01371 13.5918 1C13.2419 1.0018 12.9169 1.12918 12.6593 1.36476L6.07847 7.72597L3.26616 5.0075C3.00853 4.77192 2.68352 4.64454 2.33365 4.64275C1.97491 4.65636 1.64701 4.78638 1.39021 5.01942C1.13982 5.27692 0.999999 5.59508 0.999999 5.926C0.999999 6.27572 1.13757 6.60423 1.37396 6.83273L5.14246 10.4755C5.38598 10.7109 5.72833 10.852 6.07847 10.852C6.42525 10.852 6.77047 10.7131 7.0345 10.4717L14.5515 3.18998ZM7.34003 10.7726C7.00038 11.0853 6.54751 11.2729 6.07847 11.2729C5.60943 11.2729 5.15656 11.0853 4.83309 10.7726L1.06458 7.12982C0.741104 6.81714 0.563191 6.37939 0.563191 5.926C0.563191 5.47261 0.757278 5.05049 1.08075 4.72217C1.42041 4.40949 1.8571 4.23751 2.32614 4.22188C2.79518 4.22188 3.23188 4.39385 3.57153 4.70654L6.07847 7.12982L12.3539 1.06379C12.6936 0.751109 13.1303 0.579134 13.5993 0.579134C14.0684 0.594768 14.505 0.766743 14.8447 1.09506C15.1682 1.40774 15.3623 1.82986 15.3623 2.28325C15.3623 2.73664 15.1843 3.17439 14.8609 3.48708L7.34003 10.7726Z" fill="#FCFCFC"/>
</svg>
