<svg width="23" height="20" viewBox="0 0 23 20" fill="none" xmlns="http://www.w3.org/2000/svg">
<path d="M8.83091 19.5629C8.18236 19.5629 7.56038 19.3053 7.10178 18.8467C6.64319 18.3881 6.38555 17.7661 6.38555 17.1175C6.38555 16.469 6.64319 15.847 7.10178 15.3884C7.56038 14.9298 8.18236 14.6722 8.83091 14.6722C9.47946 14.6722 10.1015 14.9298 10.56 15.3884C11.0186 15.847 11.2763 16.469 11.2763 17.1175C11.2763 17.7661 11.0186 18.3881 10.56 18.8467C10.1015 19.3053 9.47946 19.5629 8.83091 19.5629ZM17.3897 19.5629C16.7411 19.5629 16.1191 19.3053 15.6606 18.8467C15.202 18.3881 14.9443 17.7661 14.9443 17.1175C14.9443 16.469 15.202 15.847 15.6606 15.3884C16.1191 14.9298 16.7411 14.6722 17.3897 14.6722C18.0382 14.6722 18.6602 14.9298 19.1188 15.3884C19.5774 15.847 19.8351 16.469 19.8351 17.1175C19.8351 17.7661 19.5774 18.3881 19.1188 18.8467C18.6602 19.3053 18.0382 19.5629 17.3897 19.5629ZM1.44836 2.35122C1.14313 2.34137 0.853698 2.2132 0.641266 1.99381C0.428834 1.77441 0.310059 1.481 0.310059 1.17561C0.310059 0.870221 0.428834 0.576806 0.641266 0.357411C0.853698 0.138017 1.14313 0.0098448 1.44836 0L2.85567 0C3.95853 0 4.91222 0.765399 5.15186 1.84136L6.68388 8.73973C6.92353 9.81569 7.87722 10.5811 8.98008 10.5811H18.1649L19.928 3.52621H8.50201C8.19966 3.51242 7.91426 3.3826 7.70517 3.16375C7.49609 2.94491 7.37941 2.65389 7.37941 2.35122C7.37941 2.04855 7.49609 1.75753 7.70517 1.53868C7.91426 1.31984 8.19966 1.19002 8.50201 1.17622H19.928C20.2854 1.17611 20.6382 1.2575 20.9594 1.4142C21.2807 1.57089 21.562 1.79876 21.7819 2.0805C22.0019 2.36223 22.1547 2.6904 22.2288 3.04007C22.3029 3.38974 22.2963 3.7517 22.2095 4.09843L20.4464 11.1509C20.3193 11.6597 20.0257 12.1115 19.6123 12.4343C19.1989 12.7571 18.6894 12.9324 18.1649 12.9323H8.98008C7.90998 12.9325 6.87184 12.5676 6.0371 11.898C5.20236 11.2285 4.62096 10.2942 4.38891 9.24959L2.85567 2.35122H1.44836Z" fill="#181725"/>
</svg>
