<svg width="18" height="24" viewBox="0 0 18 24" fill="none" xmlns="http://www.w3.org/2000/svg">
<path fill-rule="evenodd" clip-rule="evenodd" d="M1 10.3628C1.01483 5.68098 4.56464 1.89851 8.92873 1.91442C13.2928 1.93033 16.8186 5.73858 16.8038 10.4204V10.5164C16.7501 13.5597 15.1661 16.3727 13.2242 18.5712C12.1136 19.8084 10.8734 20.9037 9.52831 21.8353C9.16863 22.1691 8.63513 22.1691 8.27546 21.8353C6.27021 20.4351 4.51028 18.6673 3.07615 16.6127C1.79793 14.821 1.07221 12.6464 1 10.3916V10.3628Z" stroke="#181725" stroke-width="2" stroke-linecap="round" stroke-linejoin="round"/>
<path fill-rule="evenodd" clip-rule="evenodd" d="M8.90195 12.8874C10.1177 12.8874 11.1032 11.8301 11.1032 10.5258C11.1032 9.22157 10.1177 8.16426 8.90195 8.16426C7.68621 8.16426 6.70066 9.22157 6.70066 10.5258C6.70066 11.8301 7.68621 12.8874 8.90195 12.8874Z" stroke="#181725" stroke-width="2" stroke-linecap="round" stroke-linejoin="round"/>
</svg>
