<svg width="19" height="22" viewBox="0 0 19 22" fill="none" xmlns="http://www.w3.org/2000/svg">
<path d="M1 5L3.79108 1H14.9554L17.7465 5M1 5V19C1 19.5304 1.19604 20.0391 1.54499 20.4142C1.89394 20.7893 2.36723 21 2.86072 21H15.8858C16.3793 21 16.8525 20.7893 17.2015 20.4142C17.5504 20.0391 17.7465 19.5304 17.7465 19V5M1 5H17.7465M13.0947 9C13.0947 10.0609 12.7026 11.0783 12.0047 11.8284C11.3068 12.5786 10.3602 13 9.37324 13C8.38625 13 7.43969 12.5786 6.74179 11.8284C6.04388 11.0783 5.6518 10.0609 5.6518 9" stroke="#181725" stroke-width="2" stroke-linecap="round" stroke-linejoin="round"/>
</svg>
