<svg width="17" height="17" viewBox="0 0 17 17" fill="none" xmlns="http://www.w3.org/2000/svg">
<path d="M16.3705 14.5354L16.3696 14.5345L11.4972 9.83969L11.4969 9.83947L10.3927 8.7894L16.3695 3.04476C16.4945 2.92466 16.5962 2.79091 16.6602 2.64321C16.7232 2.49784 16.7615 2.33926 16.7615 2.17953C16.7615 2.01175 16.7367 1.85175 16.6595 1.70257C16.5971 1.55907 16.509 1.41332 16.3938 1.30263L16.3939 1.30258L16.3919 1.30086C16.268 1.19373 16.1296 1.09654 15.9768 1.03533C15.8234 0.973904 15.6466 0.95 15.4843 0.95C15.319 0.95 15.155 0.986675 14.9931 1.04653L14.9931 1.04651L14.9919 1.04701C14.839 1.10822 14.7001 1.2056 14.587 1.31431L8.87398 6.80538L3.12455 1.2793L3.12456 1.27928L3.12356 1.27838C2.88246 1.05884 2.56626 0.950023 2.23936 0.950023C1.91014 0.950023 1.59406 1.08376 1.36632 1.30265C1.12637 1.53328 0.998871 1.82603 0.998604 2.14352C0.986161 2.46176 1.1137 2.76646 1.34106 2.99712L1.34105 2.99713L1.34198 2.99803L6.21435 7.6928L6.21459 7.69303L7.31884 8.7431L1.34202 14.4877C1.21706 14.6078 1.11536 14.7416 1.05133 14.8893C0.988312 15.0347 0.95 15.1932 0.95 15.353C0.95 15.5207 0.974836 15.6807 1.05203 15.8299C1.11442 15.9734 1.20255 16.1192 1.31772 16.2299L1.31767 16.2299L1.31966 16.2316C1.4435 16.3388 1.58192 16.436 1.73475 16.4972C1.88814 16.5586 2.06497 16.5825 2.22721 16.5825C2.39257 16.5825 2.5565 16.5458 2.71842 16.486L2.71842 16.486L2.71967 16.4855C2.8725 16.4243 3.01145 16.3269 3.12455 16.2182L8.83755 10.7271L14.587 16.2532L14.587 16.2532L14.588 16.2541C14.8291 16.4737 15.1453 16.5825 15.4722 16.5825C15.8014 16.5825 16.1175 16.4487 16.3452 16.2298C16.5852 15.9992 16.7127 15.7065 16.7129 15.389C16.7254 15.0707 16.5978 14.766 16.3705 14.5354Z" fill="#181725" stroke="#181725" stroke-width="0.1"/>
</svg>
