<svg width="15" height="17" viewBox="0 0 15 17" fill="none" xmlns="http://www.w3.org/2000/svg">
<path d="M6.3914 12.5927C7.02085 12.5927 7.64415 12.4631 8.22569 12.2111C8.80723 11.9591 9.33564 11.5898 9.78073 11.1243C10.2258 10.6587 10.5789 10.106 10.8198 9.49769C11.0607 8.8894 11.1846 8.23744 11.1846 7.57903C11.1846 6.92062 11.0607 6.26866 10.8198 5.66037C10.5789 5.05207 10.2258 4.49937 9.78073 4.0338C9.33564 3.56823 8.80723 3.19893 8.22569 2.94696C7.64415 2.695 7.02085 2.56532 6.3914 2.56532C5.12015 2.56532 3.90097 3.09355 3.00206 4.0338C2.10315 4.97405 1.59815 6.24931 1.59815 7.57903C1.59815 8.90875 2.10315 10.184 3.00206 11.1243C3.90097 12.0645 5.12015 12.5927 6.3914 12.5927ZM11.4403 11.6786L14.3003 14.6701C14.3765 14.7472 14.4373 14.8395 14.4791 14.9415C14.5209 15.0434 14.5429 15.1531 14.5437 15.2641C14.5445 15.375 14.5243 15.485 14.484 15.5877C14.4438 15.6904 14.3844 15.7836 14.3093 15.862C14.2343 15.9404 14.145 16.0024 14.0468 16.0443C13.9486 16.0863 13.8434 16.1073 13.7373 16.1063C13.6313 16.1053 13.5265 16.0821 13.429 16.0383C13.3316 15.9944 13.2435 15.9307 13.1698 15.8508L10.3099 12.8593C9.02565 13.902 7.4098 14.3936 5.79124 14.2341C4.17269 14.0745 2.67312 13.2757 1.59779 12.0003C0.522464 10.725 -0.0477823 9.06889 0.00313879 7.36923C0.0540599 5.66956 0.72232 4.05408 1.87188 2.85164C3.02144 1.6492 4.56589 0.950206 6.19082 0.896943C7.81574 0.84368 9.399 1.44015 10.6183 2.56494C11.8376 3.68973 12.6012 5.25828 12.7538 6.95127C12.9064 8.64427 12.4364 10.3345 11.4395 11.6777L11.4403 11.6786Z" fill="#181B19"/>
</svg>
