<svg width="21" height="19" viewBox="0 0 21 19" fill="none" xmlns="http://www.w3.org/2000/svg">
<path d="M1 5.25C1 4.75763 1.39915 4.35848 1.89152 4.35848H3.1165C3.60887 4.35848 4.00806 4.75763 4.00806 5.25C4.00806 5.74237 3.60887 6.14152 3.1165 6.14152H1.89152C1.39915 6.14152 1 5.74237 1 5.25Z" fill="#181725"/>
<path d="M12.5081 5.25C12.5081 4.75763 12.9072 4.3584 13.3996 4.3584H19.1528C19.6451 4.3584 20.0443 4.75754 20.0443 5.24992C20.0443 5.74229 19.6451 6.14143 19.1528 6.14143H13.3996C12.9072 6.14143 12.5081 5.74237 12.5081 5.25Z" fill="#181725"/>
<path d="M8.9541 13.75C8.9541 14.2424 8.55496 14.6416 8.06258 14.6416L2.30562 14.6416C1.81325 14.6416 1.4141 14.2425 1.4141 13.7501C1.4141 13.2577 1.81325 12.8586 2.30562 12.8586L8.06258 12.8586C8.55495 12.8586 8.9541 13.2576 8.9541 13.75Z" fill="#181725"/>
<path d="M19.9956 13.7501C19.9956 14.2425 19.5965 14.6416 19.1041 14.6416H18.3456C17.8533 14.6416 17.4541 14.2424 17.4541 13.75C17.4541 13.2576 17.8533 12.8586 18.3456 12.8586H19.1041C19.5965 12.8586 19.9956 13.2577 19.9956 13.7501Z" fill="#181725"/>
<path d="M8.25806 9.65C10.4585 9.65 12.2817 8.03472 12.6066 5.9252C12.7976 6.14932 13.082 6.29143 13.3996 6.29143H19.1528C19.728 6.29143 20.1943 5.82513 20.1943 5.24992C20.1943 4.6747 19.728 4.2084 19.1528 4.2084H13.3996C13.082 4.2084 12.7976 4.35058 12.6066 4.57474C12.2817 2.46525 10.4585 0.85 8.25806 0.85C6.05761 0.85 4.23443 2.46527 3.90954 4.57478C3.7185 4.35063 3.43409 4.20848 3.1165 4.20848H1.89152C1.3163 4.20848 0.85 4.67479 0.85 5.25C0.85 5.82521 1.3163 6.29152 1.89152 6.29152H3.1165C3.43409 6.29152 3.7185 6.14937 3.90954 5.92522C4.23443 8.03473 6.05761 9.65 8.25806 9.65ZM13.2041 9.35C11.0036 9.35 9.18046 10.9653 8.85559 13.0748C8.66455 12.8507 8.38016 12.7086 8.06258 12.7086L2.30562 12.7086C1.73041 12.7086 1.2641 13.1749 1.2641 13.7501C1.2641 14.3253 1.73041 14.7916 2.30562 14.7916L8.06258 14.7916C8.38018 14.7916 8.66456 14.6494 8.8556 14.4253C9.1805 16.5347 11.0037 18.15 13.2041 18.15C15.4045 18.15 17.2277 16.5347 17.5526 14.4252C17.7437 14.6494 18.028 14.7916 18.3456 14.7916H19.1041C19.6793 14.7916 20.1456 14.3253 20.1456 13.7501C20.1456 13.1749 19.6793 12.7086 19.1041 12.7086H18.3456C18.0281 12.7086 17.7437 12.8507 17.5526 13.0748C17.2277 10.9653 15.4046 9.35 13.2041 9.35Z" stroke="#181725" stroke-width="0.3"/>
</svg>
