<svg width="204" height="83" viewBox="0 0 204 83" fill="none" xmlns="http://www.w3.org/2000/svg">
<path d="M201.94 69.4493L156.262 6.10258C153.532 2.31774 149.292 0.098587 144.791 0.098587H58.7268C54.2257 0.098587 49.9859 2.31774 47.2562 6.10258L1.58152 69.4493C-2.25997 74.7779 1.33261 82.4529 7.67148 82.4529H195.85C202.189 82.4485 205.782 74.7735 201.94 69.4493Z" fill="url(#paint0_linear_1215_96277)"/>
<path d="M4.15343 69.5809C2.94623 69.5809 1.82614 69.9581 0.884435 70.6028C-1.7374 75.8173 1.78051 82.4485 7.67134 82.4485H195.85C201.741 82.4485 205.259 75.8173 202.637 70.6028C201.695 69.9581 200.575 69.5809 199.368 69.5809H4.15343Z" fill="#C9CDD3"/>
<path d="M82.1531 32.6754L114.835 69.5809H101.477L72.5535 37.1181L82.1531 32.6754Z" fill="white"/>
<path d="M150.138 1.19522C148.458 0.484736 146.65 0.10318 144.795 0.10318H128.193L13.1848 53.3585L1.58151 69.4495C1.40312 69.6995 1.24548 69.9539 1.09614 70.2083L150.138 1.19522Z" fill="#FEE379"/>
<path d="M1.10023 70.208L72.5536 37.1181L101.477 69.5809L1.10023 70.208Z" fill="#86ADFF"/>
<path d="M13.1848 53.3585L128.193 0.10318H58.7267C54.2256 0.10318 49.9859 2.32233 47.2562 6.10717L13.1848 53.3585Z" fill="#69CA9F"/>
<path d="M172.569 28.7195L169.039 23.8251L147.533 33.7631L127.836 11.5189L118.365 15.9046L138.054 38.14L101.759 54.9108L105.915 59.5114L142.152 42.7713L165.894 69.5809H179.248L151.632 38.39L172.569 28.7195Z" fill="#C9CDD3"/>
<defs>
<linearGradient id="paint0_linear_1215_96277" x1="15.8814" y1="-12.8241" x2="169.426" y2="107.903" gradientUnits="userSpaceOnUse">
<stop stop-color="#F6F8FF"/>
<stop offset="1" stop-color="#DEE0ED"/>
</linearGradient>
</defs>
</svg>
