<svg width="21" height="20" viewBox="0 0 21 20" fill="none" xmlns="http://www.w3.org/2000/svg">
<path d="M8.02822 19.5629C7.44077 19.5629 6.87737 19.3053 6.46198 18.8467C6.04659 18.3881 5.81322 17.7661 5.81322 17.1175C5.81322 16.469 6.04659 15.847 6.46198 15.3884C6.87737 14.9298 7.44077 14.6722 8.02822 14.6722C8.61568 14.6722 9.17907 14.9298 9.59447 15.3884C10.0099 15.847 10.2432 16.469 10.2432 17.1175C10.2432 17.7661 10.0099 18.3881 9.59447 18.8467C9.17907 19.3053 8.61568 19.5629 8.02822 19.5629ZM15.7807 19.5629C15.1933 19.5629 14.6299 19.3053 14.2145 18.8467C13.7991 18.3881 13.5657 17.7661 13.5657 17.1175C13.5657 16.469 13.7991 15.847 14.2145 15.3884C14.6299 14.9298 15.1933 14.6722 15.7807 14.6722C16.3682 14.6722 16.9316 14.9298 17.347 15.3884C17.7624 15.847 17.9957 16.469 17.9957 17.1175C17.9957 17.7661 17.7624 18.3881 17.347 18.8467C16.9316 19.3053 16.3682 19.5629 15.7807 19.5629ZM1.34113 2.35122C1.06465 2.34137 0.802486 2.2132 0.610065 1.99381C0.417645 1.77441 0.310059 1.481 0.310059 1.17561C0.310059 0.870221 0.417645 0.576806 0.610065 0.357411C0.802486 0.138017 1.06465 0.0098448 1.34113 0L2.61586 0C3.61483 0 4.47868 0.765399 4.69575 1.84136L6.08345 8.73973C6.30052 9.81569 7.16437 10.5811 8.16334 10.5811H16.4829L18.0799 3.52621H7.73031C7.45643 3.51242 7.19792 3.3826 7.00853 3.16375C6.81914 2.94491 6.71346 2.65389 6.71346 2.35122C6.71346 2.04855 6.81914 1.75753 7.00853 1.53868C7.19792 1.31984 7.45643 1.19002 7.73031 1.17622H18.0799C18.4037 1.17611 18.7232 1.2575 19.0142 1.4142C19.3052 1.57089 19.56 1.79876 19.7592 2.0805C19.9585 2.36223 20.0969 2.6904 20.164 3.04007C20.2311 3.38974 20.2251 3.7517 20.1465 4.09843L18.5495 11.1509C18.4344 11.6597 18.1684 12.1115 17.7939 12.4343C17.4195 12.7571 16.958 12.9324 16.4829 12.9323H8.16334C7.19405 12.9325 6.2537 12.5676 5.4976 11.898C4.74149 11.2285 4.21486 10.2942 4.00467 9.24959L2.61586 2.35122H1.34113Z" fill="#181725"/>
</svg>
