<svg width="10" height="16" viewBox="0 0 10 16" fill="none" xmlns="http://www.w3.org/2000/svg">
<path d="M1.26609 2.83862L1.26607 2.83864L1.26792 2.84043L5.65958 7.07201L5.66005 7.07247L6.61372 7.97933L1.26801 13.1174C1.15159 13.2293 1.05499 13.3556 0.99367 13.4971C0.934382 13.6338 0.897806 13.7842 0.897806 13.9368C0.897806 14.0928 0.920791 14.246 0.995057 14.3903C1.05311 14.5234 1.13594 14.6609 1.24611 14.7668L1.24602 14.7669L1.24998 14.7704C1.36418 14.8692 1.49417 14.9609 1.63964 15.0191C1.78623 15.0779 1.95301 15.1 2.10393 15.1C2.26112 15.1 2.41544 15.0651 2.56573 15.0096L2.56574 15.0096L2.56823 15.0086C2.71369 14.9504 2.84475 14.8582 2.95081 14.7563L9.1495 8.79841C9.25873 8.69343 9.34256 8.56622 9.40194 8.42925L9.40198 8.42926L9.40303 8.42663C9.4611 8.28151 9.4978 8.13184 9.4978 7.97895C9.4978 7.8263 9.46123 7.67594 9.40194 7.53917C9.34256 7.4022 9.25873 7.27499 9.1495 7.17001L2.9508 1.21211L2.95083 1.21209L2.94883 1.21027C2.72028 1.00215 2.4216 0.9 2.11488 0.9C1.80353 0.9 1.50511 1.02633 1.28992 1.23317C1.06364 1.45065 0.942147 1.7282 0.941614 2.02959C0.93008 2.33244 1.05167 2.62108 1.26609 2.83862Z" fill="#181725" stroke="#181725" stroke-width="0.2"/>
</svg>
