<svg width="19" height="19" viewBox="0 0 19 19" fill="none" xmlns="http://www.w3.org/2000/svg">
<path d="M8.14454 14.0005C8.93247 14.0005 9.71268 13.8453 10.4406 13.5438C11.1686 13.2423 11.83 12.8003 12.3872 12.2431C12.9443 11.686 13.3863 11.0246 13.6878 10.2966C13.9893 9.56865 14.1445 8.78843 14.1445 8.0005C14.1445 7.21257 13.9893 6.43236 13.6878 5.7044C13.3863 4.97645 12.9443 4.31501 12.3872 3.75786C11.83 3.20071 11.1686 2.75875 10.4406 2.45723C9.71268 2.1557 8.93247 2.0005 8.14454 2.0005C6.55324 2.0005 5.02711 2.63264 3.9019 3.75786C2.77668 4.88308 2.14454 6.4092 2.14454 8.0005C2.14454 9.5918 2.77668 11.1179 3.9019 12.2431C5.02711 13.3684 6.55324 14.0005 8.14454 14.0005ZM14.4645 12.9065L18.0445 16.4865C18.14 16.5788 18.2161 16.6892 18.2684 16.8113C18.3207 16.9333 18.3482 17.0645 18.3493 17.1973C18.3503 17.3301 18.3249 17.4618 18.2746 17.5846C18.2242 17.7075 18.1499 17.8191 18.0559 17.9129C17.962 18.0067 17.8503 18.0809 17.7273 18.1311C17.6044 18.1813 17.4727 18.2065 17.3399 18.2052C17.2071 18.204 17.0759 18.1763 16.954 18.1238C16.832 18.0713 16.7217 17.9951 16.6295 17.8995L13.0495 14.3195C11.442 15.5674 9.41933 16.1557 7.39329 15.9647C5.36725 15.7737 3.49014 14.8178 2.14409 13.2916C0.798033 11.7653 0.0842214 9.78345 0.147962 7.74943C0.211704 5.7154 1.04821 3.78213 2.48718 2.34315C3.92616 0.904173 5.85944 0.0676701 7.89346 0.00392902C9.92748 -0.0598121 11.9093 0.654 13.4356 2.00005C14.9619 3.34611 15.9178 5.22322 16.1087 7.24926C16.2997 9.2753 15.7114 11.298 14.4635 12.9055L14.4645 12.9065Z" fill="#53B175"/>
</svg>
