<svg width="19" height="19" viewBox="0 0 19 19" fill="none" xmlns="http://www.w3.org/2000/svg">
<path d="M11.1954 4.39659L10.9393 4.13998V4.50257V11.9413C10.9393 12.2512 10.8162 12.5484 10.5971 12.7675C10.3779 12.9866 10.0807 13.1097 9.77083 13.1097C9.46094 13.1097 9.16374 12.9866 8.94461 12.7675C8.72548 12.5484 8.60238 12.2512 8.60238 11.9413V4.50257V4.1402L8.34627 4.39655L6.86836 5.87577C6.86835 5.87578 6.86833 5.8758 6.86832 5.87581C6.64889 6.09506 6.35136 6.21817 6.04117 6.21806C5.73096 6.21795 5.4335 6.09461 5.21422 5.87518C4.99495 5.65575 4.87182 5.3582 4.87193 5.04799C4.87204 4.73778 4.99538 4.44032 5.21481 4.22104L8.94471 0.493775L8.94506 0.493433C9.05327 0.384593 9.18194 0.29822 9.32366 0.239281C9.46538 0.180342 9.61735 0.15 9.77083 0.15C9.92432 0.15 10.0763 0.180342 10.218 0.239281C10.3597 0.29822 10.4884 0.384593 10.5966 0.493434L10.5969 0.493756L14.3268 4.22229C14.3268 4.22229 14.3268 4.2223 14.3268 4.22231C14.3268 4.22232 14.3268 4.22233 14.3268 4.22234C14.4354 4.33098 14.5215 4.45993 14.5802 4.60184C14.6389 4.74377 14.6691 4.89588 14.6691 5.04948C14.669 5.20308 14.6387 5.35517 14.5799 5.49705C14.521 5.63894 14.4348 5.76785 14.3262 5.87643C14.2175 5.985 14.0886 6.07111 13.9466 6.12984C13.8047 6.18857 13.6526 6.21877 13.499 6.21872C13.3454 6.21866 13.1933 6.18836 13.0514 6.12953C12.9096 6.0707 12.7807 5.98452 12.6721 5.8759C12.6721 5.87588 12.6721 5.87586 12.6721 5.87584L11.1954 4.39659ZM3.17856 10.399H3.02856V10.549V15.8228V15.9728H3.17856H16.3631H16.5131V15.8228V10.549V10.399H16.3631H15.0446C14.7348 10.399 14.4376 10.2759 14.2184 10.0568C13.9993 9.83763 13.8762 9.54043 13.8762 9.23054C13.8762 8.92065 13.9993 8.62345 14.2184 8.40432C14.4376 8.18519 14.7348 8.06209 15.0446 8.06209H16.3631C17.0227 8.06209 17.6552 8.3241 18.1216 8.79049C18.588 9.25687 18.85 9.88943 18.85 10.549V15.8228C18.85 16.4824 18.588 17.1149 18.1216 17.5813C17.6552 18.0477 17.0227 18.3097 16.3631 18.3097H3.17856C2.519 18.3097 1.88644 18.0477 1.42005 17.5813C0.953669 17.1149 0.691657 16.4824 0.691657 15.8228V10.549C0.691657 9.88943 0.953669 9.25687 1.42005 8.79049C1.88644 8.3241 2.51899 8.06209 3.17856 8.06209H4.49702C4.80691 8.06209 5.10411 8.18519 5.32324 8.40432C5.54237 8.62345 5.66547 8.92065 5.66547 9.23054C5.66547 9.54043 5.54237 9.83763 5.32324 10.0568C5.10411 10.2759 4.80691 10.399 4.49702 10.399H3.17856Z" fill="#181725" stroke="white" stroke-width="0.3"/>
</svg>
