<svg width="16" height="12" viewBox="0 0 16 12" fill="none" xmlns="http://www.w3.org/2000/svg">
<path d="M15.3623 2.28325C15.3623 2.73664 15.1843 3.17439 14.8609 3.48708L7.34003 10.7726C7.00038 11.0853 6.54751 11.2729 6.07847 11.2729C5.60943 11.2729 5.15656 11.0853 4.83309 10.7726L1.06458 7.12982C0.741104 6.81714 0.563191 6.37939 0.563191 5.926C0.563191 5.47261 0.757278 5.05049 1.08075 4.72217C1.42041 4.40949 1.8571 4.23751 2.32614 4.22188C2.79518 4.22188 3.23188 4.39386 3.57153 4.70654L6.07847 7.12982L12.3539 1.06379C12.6936 0.751109 13.1303 0.579134 13.5993 0.579134C14.0684 0.594768 14.505 0.766743 14.8447 1.09506C15.1682 1.40774 15.3623 1.82986 15.3623 2.28325Z" fill="white"/>
</svg>
