<svg width="21" height="20" viewBox="0 0 21 20" fill="none" xmlns="http://www.w3.org/2000/svg">
<path d="M8.00764 19.5629C7.42175 19.5629 6.85986 19.3053 6.44558 18.8467C6.03129 18.3881 5.79855 17.7661 5.79855 17.1175C5.79855 16.469 6.03129 15.847 6.44558 15.3884C6.85986 14.9298 7.42175 14.6722 8.00764 14.6722C8.59353 14.6722 9.15542 14.9298 9.56971 15.3884C9.98399 15.847 10.2167 16.469 10.2167 17.1175C10.2167 17.7661 9.98399 18.3881 9.56971 18.8467C9.15542 19.3053 8.59353 19.5629 8.00764 19.5629ZM15.7395 19.5629C15.1536 19.5629 14.5917 19.3053 14.1774 18.8467C13.7631 18.3881 13.5304 17.7661 13.5304 17.1175C13.5304 16.469 13.7631 15.847 14.1774 15.3884C14.5917 14.9298 15.1536 14.6722 15.7395 14.6722C16.3254 14.6722 16.8873 14.9298 17.3015 15.3884C17.7158 15.847 17.9486 16.469 17.9486 17.1175C17.9486 17.7661 17.7158 18.3881 17.3015 18.8467C16.8873 19.3053 16.3254 19.5629 15.7395 19.5629ZM1.33838 2.35122C1.06264 2.34137 0.801172 2.2132 0.609265 1.99381C0.417358 1.77441 0.310059 1.481 0.310059 1.17561C0.310059 0.870221 0.417358 0.576806 0.609265 0.357411C0.801172 0.138017 1.06264 0.0098448 1.33838 0L2.60971 0C3.60602 0 4.46757 0.765399 4.68406 1.84136L6.06806 8.73973C6.28455 9.81569 7.1461 10.5811 8.1424 10.5811H16.4398L18.0325 3.52621H7.71052C7.43738 3.51242 7.17955 3.3826 6.99067 3.16375C6.80178 2.94491 6.69638 2.65389 6.69638 2.35122C6.69638 2.04855 6.80178 1.75753 6.99067 1.53868C7.17955 1.31984 7.43738 1.19002 7.71052 1.17622H18.0325C18.3554 1.17611 18.6741 1.2575 18.9643 1.4142C19.2545 1.57089 19.5086 1.79876 19.7074 2.0805C19.9061 2.36223 20.0441 2.6904 20.1111 3.04007C20.178 3.38974 20.172 3.7517 20.0936 4.09843L18.5009 11.1509C18.386 11.6597 18.1208 12.1115 17.7473 12.4343C17.3738 12.7571 16.9136 12.9324 16.4398 12.9323H8.1424C7.17569 12.9325 6.23785 12.5676 5.48376 11.898C4.72968 11.2285 4.20445 10.2942 3.99482 9.24959L2.60971 2.35122H1.33838Z" fill="#181725"/>
</svg>
