<svg width="9" height="14" viewBox="0 0 9 14" fill="none" xmlns="http://www.w3.org/2000/svg">
<path d="M0.339504 1.76842C0.142373 1.56842 0.0328551 1.30526 0.0438069 1.03158C0.0438069 0.757895 0.153324 0.505263 0.361408 0.305263C0.55854 0.115789 0.832334 0 1.11708 0C1.40183 0 1.67562 0.0947373 1.8837 0.284211L8.0824 6.24211C8.18097 6.33684 8.25763 6.45263 8.31239 6.57895C8.36715 6.70526 8.4 6.84211 8.4 6.97895C8.4 7.11579 8.36715 7.25263 8.31239 7.38947C8.25763 7.51579 8.18097 7.63158 8.0824 7.72632L1.8837 13.6842C1.78514 13.7789 1.66467 13.8632 1.53325 13.9158C1.39087 13.9684 1.2485 14 1.10613 14C0.963755 14 0.81043 13.9789 0.679009 13.9263C0.547588 13.8737 0.427119 13.7895 0.317601 13.6947C0.219035 13.6 0.142373 13.4737 0.087614 13.3474C0.0219034 13.2211 1.7057e-09 13.0842 0 12.9368C-1.58387e-09 12.8 0.0328552 12.6632 0.087614 12.5368C0.142373 12.4105 0.229987 12.2947 0.339505 12.1895L5.76063 6.97895L4.73116 6L0.339504 1.76842Z" fill="#181725"/>
</svg>
