<svg width="22" height="23" viewBox="0 0 22 23" fill="none" xmlns="http://www.w3.org/2000/svg">
<path d="M16.4947 4.14036C16.7616 3.86573 16.7615 3.42221 16.4947 3.14762L14.4641 1.05777C14.1949 0.780724 13.7567 0.780761 13.4875 1.05777L1.05012 13.8581C0.783311 14.1327 0.783276 14.5762 1.05012 14.8509L3.0807 16.9407C3.3499 17.2178 3.78817 17.2177 4.05733 16.9407C4.62823 16.3532 5.55567 16.3531 6.1266 16.9407C6.69987 17.5307 6.69987 18.4927 6.1266 19.0828C5.85979 19.3573 5.85975 19.8009 6.1266 20.0755L8.15718 22.1653C8.42637 22.4424 8.86464 22.4423 9.1338 22.1653L21.5712 9.36499C21.838 9.09035 21.838 8.64684 21.5712 8.37224L19.5406 6.2824C19.2714 6.00535 18.8331 6.00539 18.564 6.2824C17.9931 6.86996 17.0656 6.86998 16.4947 6.2824C15.9214 5.6924 15.9214 4.73036 16.4947 4.14036ZM15.5181 7.27517C16.458 8.24258 17.8994 8.3899 18.9923 7.71591L20.1123 8.86861L12.326 16.8822L11.2913 15.8173C11.0221 15.5403 10.5839 15.5403 10.3147 15.8173C10.0479 16.0919 10.0479 16.5355 10.3147 16.8101L11.3554 17.8811L8.64549 20.67L7.52693 19.5188C8.18401 18.3974 8.04373 16.9159 7.10322 15.948C6.16323 14.9806 4.72192 14.8332 3.62905 15.5072L2.50904 14.3545L5.21887 11.5656L6.25351 12.6304C6.5227 12.9075 6.96097 12.9074 7.23013 12.6304C7.49694 12.3558 7.49694 11.9123 7.23013 11.6377L6.18948 10.5666L13.9758 2.5531L15.0943 3.70431C14.4373 4.82572 14.5775 6.3072 15.5181 7.27517ZM7.77632 13.2051C7.50954 13.4797 7.50958 13.9231 7.77632 14.1976L8.79132 15.2423C9.06045 15.5193 9.49862 15.5192 9.76772 15.2423C10.0345 14.9677 10.0345 14.5243 9.76772 14.2498L8.75273 13.2052C8.48365 12.9282 8.04544 12.9282 7.77632 13.2051Z" fill="#181725" stroke="#181725" stroke-width="0.3"/>
</svg>
