<svg width="18" height="18" viewBox="0 0 18 18" fill="none" xmlns="http://www.w3.org/2000/svg">
<path d="M17.8542 8.66055C17.8542 9.03657 17.7047 9.40006 17.4251 9.66327C17.1521 9.93275 16.775 10.0832 16.385 10.0832H10.5081V15.7485C10.5081 16.1245 10.3521 16.488 10.0725 16.7512C9.79948 17.0145 9.42893 17.1649 9.03887 17.1649C8.64881 17.1649 8.27175 17.0145 7.99871 16.7512C7.71917 16.488 7.56315 16.1245 7.56315 15.7485V10.0832H1.68626C1.2962 10.0832 0.919147 9.93275 0.646106 9.66327C0.373064 9.40006 0.217041 9.03657 0.217041 8.66055C0.217041 8.28454 0.373064 7.92732 0.646106 7.65784C0.919147 7.39462 1.2962 7.24422 1.68626 7.24422H7.56315V1.57886C7.56315 1.20284 7.71917 0.839352 7.99871 0.576138C8.27175 0.306658 8.64881 0.15625 9.03887 0.15625C9.42893 0.15625 9.79948 0.306658 10.0725 0.576138C10.3521 0.839352 10.5081 1.20284 10.5081 1.57886V7.24422H16.385C16.775 7.24422 17.1521 7.39462 17.4251 7.65784C17.7047 7.92732 17.8542 8.28454 17.8542 8.66055Z" fill="white"/>
</svg>
