<svg width="18" height="18" viewBox="0 0 18 18" fill="none" xmlns="http://www.w3.org/2000/svg">
<path d="M17.8533 9C17.8533 9.37592 17.7032 9.73931 17.4225 10.0025C17.1484 10.2719 16.7699 10.4222 16.3783 10.4222H10.4783V16.0861C10.4783 16.462 10.3216 16.8254 10.041 17.0885C9.76687 17.3517 9.39486 17.502 9.00326 17.502C8.61167 17.502 8.23313 17.3517 7.95902 17.0885C7.67837 16.8254 7.52174 16.462 7.52174 16.0861V10.4222H1.62174C1.23014 10.4222 0.851603 10.2719 0.577488 10.0025C0.303373 9.73931 0.146736 9.37592 0.146736 9C0.146736 8.62408 0.303373 8.26696 0.577488 7.99755C0.851603 7.73441 1.23014 7.58404 1.62174 7.58404H7.52174V1.9202C7.52174 1.54428 7.67837 1.18089 7.95902 0.917751C8.23313 0.648343 8.61167 0.497975 9.00326 0.497975C9.39486 0.497975 9.76687 0.648343 10.041 0.917751C10.3216 1.18089 10.4783 1.54428 10.4783 1.9202V7.58404H16.3783C16.7699 7.58404 17.1484 7.73441 17.4225 7.99755C17.7032 8.26696 17.8533 8.62408 17.8533 9Z" fill="#53B175"/>
</svg>
