<svg width="18" height="18" viewBox="0 0 18 18" fill="none" xmlns="http://www.w3.org/2000/svg">
<path d="M17.8542 9.11221C17.8542 9.48823 17.7047 9.85172 17.4251 10.1149C17.1521 10.3844 16.775 10.5348 16.385 10.5348H10.5081V16.2002C10.5081 16.5762 10.3521 16.9397 10.0725 17.2029C9.79948 17.4661 9.42893 17.6165 9.03887 17.6165C8.64881 17.6165 8.27175 17.4661 7.99871 17.2029C7.71917 16.9397 7.56315 16.5762 7.56315 16.2002V10.5348H1.68626C1.2962 10.5348 0.919147 10.3844 0.646106 10.1149C0.373064 9.85172 0.217041 9.48823 0.217041 9.11221C0.217041 8.7362 0.373064 8.37898 0.646106 8.1095C0.919147 7.84628 1.2962 7.69588 1.68626 7.69588H7.56315V2.03052C7.56315 1.6545 7.71917 1.29101 7.99871 1.0278C8.27175 0.758318 8.64881 0.60791 9.03887 0.60791C9.42893 0.60791 9.79948 0.758318 10.0725 1.0278C10.3521 1.29101 10.5081 1.6545 10.5081 2.03052V7.69588H16.385C16.775 7.69588 17.1521 7.84628 17.4251 8.1095C17.7047 8.37898 17.8542 8.7362 17.8542 9.11221Z" fill="white"/>
</svg>
