<svg width="8" height="14" viewBox="0 0 8 14" fill="none" xmlns="http://www.w3.org/2000/svg">
<path d="M0.320455 1.76842C0.134385 1.56842 0.0310125 1.30526 0.0413499 1.03158C0.0413499 0.757895 0.144722 0.505263 0.341129 0.305263C0.5272 0.115789 0.785631 -2.48932e-08 1.0544 0C1.32317 2.48933e-08 1.5816 0.0947381 1.77801 0.284211L7.62888 6.24211C7.72191 6.33684 7.79427 6.45263 7.84596 6.57895C7.89765 6.70526 7.92866 6.84211 7.92866 6.97895C7.92866 7.11579 7.89765 7.25263 7.84596 7.38947C7.79427 7.51579 7.72191 7.63158 7.62888 7.72632L1.778 13.6842C1.68497 13.7789 1.57126 13.8632 1.44721 13.9158C1.31283 13.9684 1.17844 14 1.04406 14C0.909676 14 0.764955 13.9789 0.640908 13.9263C0.516861 13.8737 0.403152 13.7895 0.299779 13.6947C0.206744 13.6 0.134384 13.4737 0.0826974 13.3474C0.0206742 13.2211 -1.21604e-08 13.0842 0 12.9368C1.12918e-08 12.8 0.0310116 12.6632 0.0826974 12.5368C0.134384 12.4105 0.217082 12.2947 0.320454 12.1895L5.43739 6.97895L4.46569 6L0.320455 1.76842Z" fill="#181725"/>
</svg>
