<svg width="17" height="18" viewBox="0 0 17 18" fill="none" xmlns="http://www.w3.org/2000/svg">
<path d="M17.0012 9.37894C17.0012 9.75503 16.857 10.1186 16.5874 10.3819C16.3241 10.6514 15.9604 10.8018 15.5842 10.8018H9.91632V16.4682C9.91632 16.8443 9.76585 17.2079 9.49625 17.4711C9.23291 17.7344 8.87553 17.8848 8.49935 17.8848C8.12316 17.8848 7.75951 17.7344 7.49618 17.4711C7.22657 17.2079 7.0761 16.8443 7.0761 16.4682V10.8018H1.40819C1.032 10.8018 0.668351 10.6514 0.405019 10.3819C0.141686 10.1186 -0.00878906 9.75503 -0.00878906 9.37894C-0.00878906 9.00285 0.141686 8.64557 0.405019 8.37604C0.668351 8.11278 1.032 7.96234 1.40819 7.96234H7.0761V2.29592C7.0761 1.91983 7.22657 1.55628 7.49618 1.29301C7.75951 1.02348 8.12316 0.873047 8.49935 0.873047C8.87553 0.873047 9.23291 1.02348 9.49625 1.29301C9.76585 1.55628 9.91632 1.91983 9.91632 2.29592V7.96234H15.5842C15.9604 7.96234 16.3241 8.11278 16.5874 8.37604C16.857 8.64557 17.0012 9.00285 17.0012 9.37894Z" fill="white"/>
</svg>
