<svg width="19" height="20" viewBox="0 0 19 20" fill="none" xmlns="http://www.w3.org/2000/svg">
<path d="M9.35991 0C7.5087 0 5.69905 0.58649 4.15983 1.6853C2.6206 2.78412 1.42091 4.3459 0.712485 6.17317C0.0040555 8.00043 -0.181302 10.0111 0.179852 11.9509C0.541006 13.8907 1.43245 15.6725 2.74146 17.0711C4.05046 18.4696 5.71824 19.422 7.53388 19.8079C9.34953 20.1937 11.2315 19.9957 12.9418 19.2388C14.6521 18.4819 16.1139 17.2002 17.1424 15.5557C18.1709 13.9112 18.7198 11.9778 18.7198 10C18.7198 8.68678 18.4777 7.38642 18.0073 6.17317C17.537 4.95991 16.8475 3.85752 15.9784 2.92893C15.1092 2.00035 14.0774 1.26375 12.9418 0.761205C11.8062 0.258658 10.5891 0 9.35991 0ZM9.35991 18C7.87894 18 6.43123 17.5308 5.19984 16.6518C3.96846 15.7727 3.00871 14.5233 2.44197 13.0615C1.87523 11.5997 1.72694 9.99113 2.01586 8.43928C2.30479 6.88743 3.01794 5.46197 4.06515 4.34315C5.11235 3.22433 6.44657 2.4624 7.89909 2.15372C9.35161 1.84504 10.8572 2.00346 12.2254 2.60896C13.5937 3.21447 14.7631 4.23984 15.5859 5.55544C16.4087 6.87103 16.8478 8.41775 16.8478 10C16.8478 12.1217 16.0589 14.1566 14.6547 15.6569C13.2504 17.1571 11.3458 18 9.35991 18Z" fill="#181725"/>
<path d="M9.35991 15C9.87684 15 10.2959 14.5523 10.2959 14C10.2959 13.4477 9.87684 13 9.35991 13C8.84297 13 8.42392 13.4477 8.42392 14C8.42392 14.5523 8.84297 15 9.35991 15Z" fill="#181725"/>
<path d="M9.35991 5C9.11167 5 8.87359 5.10536 8.69806 5.29289C8.52253 5.48043 8.42392 5.73478 8.42392 6V11C8.42392 11.2652 8.52253 11.5196 8.69806 11.7071C8.87359 11.8946 9.11167 12 9.35991 12C9.60815 12 9.84622 11.8946 10.0218 11.7071C10.1973 11.5196 10.2959 11.2652 10.2959 11V6C10.2959 5.73478 10.1973 5.48043 10.0218 5.29289C9.84622 5.10536 9.60815 5 9.35991 5Z" fill="#181725"/>
</svg>
