<svg width="18" height="18" viewBox="0 0 18 18" fill="none" xmlns="http://www.w3.org/2000/svg">
<path d="M17.9821 9.11221C17.9821 9.48823 17.8326 9.85172 17.5531 10.1149C17.28 10.3844 16.903 10.5348 16.5129 10.5348H10.636V16.2002C10.636 16.5762 10.48 16.9397 10.2005 17.2029C9.92741 17.4661 9.55686 17.6165 9.1668 17.6165C8.77674 17.6165 8.39968 17.4661 8.12664 17.2029C7.8471 16.9397 7.69108 16.5762 7.69108 16.2002V10.5348H1.81419C1.42413 10.5348 1.04708 10.3844 0.774035 10.1149C0.500994 9.85172 0.344971 9.48823 0.344971 9.11221C0.344971 8.7362 0.500994 8.37898 0.774035 8.1095C1.04708 7.84628 1.42413 7.69588 1.81419 7.69588H7.69108V2.03052C7.69108 1.6545 7.8471 1.29101 8.12664 1.0278C8.39968 0.758318 8.77674 0.60791 9.1668 0.60791C9.55686 0.60791 9.92741 0.758318 10.2005 1.0278C10.48 1.29101 10.636 1.6545 10.636 2.03052V7.69588H16.5129C16.903 7.69588 17.28 7.84628 17.5531 8.1095C17.8326 8.37898 17.9821 8.7362 17.9821 9.11221Z" fill="white"/>
</svg>
