<svg width="16" height="16" viewBox="0 0 16 16" fill="none" xmlns="http://www.w3.org/2000/svg">
<path d="M14.6877 13.2042L14.6868 13.2033L10.1916 8.96888L10.1914 8.96866L9.17681 8.02549L14.6867 2.84816C14.8023 2.73957 14.8966 2.61843 14.956 2.48439C15.0144 2.35271 15.05 2.20888 15.05 2.06386C15.05 1.91198 15.027 1.76671 14.9553 1.63117C14.8975 1.50134 14.8159 1.36935 14.7092 1.26903L14.7092 1.26898L14.7072 1.26729C14.5927 1.17048 14.4647 1.08256 14.3232 1.02717C14.1812 0.971585 14.0177 0.95 13.8678 0.95C13.7148 0.95 13.5632 0.983166 13.4136 1.03724L13.4136 1.03723L13.4124 1.03771C13.2709 1.09309 13.1423 1.1812 13.0377 1.27956L6.69284 7.24139C6.58656 7.34125 6.50441 7.46282 6.44596 7.59462L6.44594 7.59461L6.44539 7.59595C6.38763 7.73707 6.35199 7.88054 6.35199 8.02569C6.35199 8.17071 6.38757 8.31454 6.44596 8.44622C6.50441 8.57802 6.58656 8.69959 6.69284 8.79945L13.0377 14.7613L13.0376 14.7613L13.0386 14.7622C13.2619 14.9609 13.5545 15.0592 13.8566 15.0592C14.161 15.0592 14.4534 14.9384 14.6643 14.7402C14.8865 14.5315 15.0049 14.2661 15.0052 13.978C15.0167 13.6891 14.8982 13.4129 14.6877 13.2042Z" fill="#B3B3B3" stroke="#B3B3B3" stroke-width="0.1"/>
<path d="M0.817042 2.80512L0.817969 2.80602L5.31315 7.04039L5.31339 7.04061L6.32794 7.98378L0.818013 13.1611C0.702446 13.2697 0.608153 13.3908 0.548717 13.5249C0.490323 13.6566 0.454744 13.8004 0.454744 13.9454C0.454744 14.0973 0.477737 14.2426 0.549438 14.3781C0.607198 14.5079 0.688824 14.6399 0.795593 14.7402L0.795547 14.7403L0.797545 14.742C0.912016 14.8388 1.04007 14.9267 1.18153 14.9821C1.32352 15.0377 1.48705 15.0593 1.63695 15.0593C1.78991 15.0593 1.9415 15.0261 2.09113 14.972L2.09113 14.972L2.09236 14.9716C2.23382 14.9162 2.36241 14.8281 2.46709 14.7297L8.81191 8.76789C8.91819 8.66802 9.00034 8.54645 9.05879 8.41465L9.0588 8.41466L9.05935 8.41332C9.11711 8.27221 9.15276 8.12873 9.15276 7.98359C9.15276 7.83856 9.11718 7.69474 9.05879 7.56305C9.00034 7.43125 8.91819 7.30969 8.81191 7.20982L2.46709 1.24799L2.4671 1.24798L2.4661 1.24708C2.24283 1.04834 1.95029 0.950033 1.64816 0.950033C1.34375 0.950033 1.05132 1.07091 0.840435 1.26906C0.618267 1.47781 0.499865 1.74318 0.499586 2.03127C0.48807 2.32013 0.606528 2.59632 0.817042 2.80512Z" fill="#B3B3B3" stroke="#B3B3B3" stroke-width="0.1"/>
</svg>
