<svg width="49" height="57" viewBox="0 0 49 57" fill="none" xmlns="http://www.w3.org/2000/svg">
<path fill-rule="evenodd" clip-rule="evenodd" d="M33.2268 4.38356C33.4688 2.22197 31.9363 0.270075 29.7747 0.0281049C27.6131 -0.229996 25.6612 1.31861 25.4192 3.48021C25.1289 5.9483 25.5322 8.90033 26.0484 11.933C27.4841 12.3686 28.8713 12.9977 30.1619 13.7397C31.5491 10.4651 32.9042 7.22268 33.2268 4.38356ZM48.4064 13.8688C47.5514 11.8685 45.2285 10.9651 43.2282 11.8201C40.5988 12.9654 37.8726 15.2077 35.1303 17.5145C36.1627 18.5307 37.1306 19.6761 37.9533 20.9182C41.0666 20.531 44.0509 20.0632 46.3577 19.0631C48.358 18.1758 49.2775 15.8529 48.4064 13.8688ZM41.7764 3.31889C40.0342 2.02839 37.5661 2.38328 36.2756 4.12546C34.3076 6.771 32.9848 10.7232 31.5491 14.5786C32.0331 14.9012 32.4848 15.2238 32.9203 15.5626C33.2429 15.8207 33.5817 16.0949 33.9205 16.3691C37.2112 13.8849 40.6311 11.4652 42.5991 8.81968C43.8896 7.07749 43.5186 4.6094 41.7764 3.31889Z" fill="white"/>
<path d="M34.2915 34.904C33.0816 36.2107 31.7911 37.4205 30.42 38.5981C28.5003 40.2596 26.5484 41.8728 24.5643 43.4214C22.4349 42.1147 20.9025 41.4534 20.6444 41.7921C20.4185 42.0986 21.3058 43.2278 22.9028 44.6957C17.5472 48.6802 11.8851 52.1968 5.80355 55.0843C4.8518 55.536 3.85166 55.8586 2.86765 56.2135C2.60955 56.3103 2.33531 56.3103 2.22239 56.3264C0.673788 56.5039 0.205979 56.0845 0.270504 54.6649C0.46408 50.2449 1.83524 46.0992 3.2548 41.9696C3.64195 40.8404 4.04523 39.7112 4.46465 38.582C6.61012 39.8886 8.14259 40.5661 8.40069 40.2274C8.67493 39.8564 7.38442 38.3723 5.22282 36.5172C6.77143 32.5166 8.49748 28.5806 10.53 24.8058C14.5951 27.8224 18.2085 29.8065 18.6118 29.2581C19.0151 28.7096 16.0308 25.7898 11.9173 22.741L11.7399 22.612C12.4497 21.4021 13.1917 20.1923 13.9821 19.0147C14.9661 17.5306 16.176 16.1756 17.3697 14.8528C18.9667 13.0945 21.0315 12.4976 23.3383 13.0138C30.7264 14.6592 35.8562 18.9018 38.2759 26.177C38.7598 27.6611 38.3243 29.1129 37.5661 30.4518C37.0499 31.3551 36.4853 32.2101 35.8562 33.0167C31.9524 30.1614 28.5648 28.3225 28.1777 28.8387C27.8067 29.3549 30.5006 32.0165 34.2915 34.904Z" fill="white"/>
</svg>
