<svg width="17" height="17" viewBox="0 0 17 17" fill="none" xmlns="http://www.w3.org/2000/svg">
<path d="M15.659 14.2691L15.6581 14.2682L10.7857 9.57345L10.7855 9.57322L9.68126 8.52315L15.6581 2.77851C15.783 2.65841 15.8847 2.52466 15.9488 2.37696C16.0118 2.23159 16.0501 2.07301 16.0501 1.91329C16.0501 1.7455 16.0253 1.5855 15.9481 1.43632C15.8857 1.29282 15.7975 1.14708 15.6824 1.03638L15.6824 1.03633L15.6804 1.03462C15.5566 0.927485 15.4182 0.830292 15.2654 0.769087C15.112 0.707657 14.9351 0.683753 14.7729 0.683753C14.6075 0.683753 14.4436 0.720428 14.2817 0.780284L14.2817 0.780267L14.2804 0.780765C14.1276 0.84197 13.9887 0.939356 13.8756 1.04806L8.16255 6.53913L2.41312 1.01305L2.41313 1.01304L2.41214 1.01213C2.17104 0.792592 1.85483 0.683777 1.52793 0.683777C1.19871 0.683777 0.882636 0.817514 0.654896 1.03641C0.414943 1.26704 0.287445 1.55978 0.287178 1.87728C0.274736 2.19551 0.402279 2.50021 0.629633 2.73087L0.629621 2.73088L0.63055 2.73178L5.50293 7.42656L5.50316 7.42678L6.60742 8.47685L0.630594 14.2215C0.505637 14.3416 0.403935 14.4753 0.339904 14.623C0.276886 14.7684 0.238574 14.927 0.238574 15.0867C0.238574 15.2545 0.26341 15.4145 0.340603 15.5637C0.402997 15.7072 0.491123 15.8529 0.606292 15.9636L0.606244 15.9637L0.608229 15.9654C0.732075 16.0725 0.870491 16.1697 1.02332 16.2309C1.17671 16.2923 1.35355 16.3162 1.51578 16.3162C1.68115 16.3162 1.84508 16.2796 2.00699 16.2197L2.007 16.2197L2.00824 16.2192C2.16107 16.158 2.30002 16.0606 2.41312 15.9519L8.12612 10.4609L13.8756 15.987L13.8755 15.987L13.8765 15.9879C14.1176 16.2074 14.4338 16.3162 14.7607 16.3162C15.09 16.3162 15.406 16.1825 15.6338 15.9636C15.8737 15.733 16.0012 15.4402 16.0015 15.1227C16.0139 14.8045 15.8864 14.4998 15.659 14.2691Z" fill="#181725" stroke="#181725" stroke-width="0.1"/>
</svg>
