<svg width="9" height="14" viewBox="0 0 9 14" fill="none" xmlns="http://www.w3.org/2000/svg">
<path d="M0.364069 1.76842C0.152675 1.56842 0.0352327 1.30526 0.0469772 1.03158C0.0469772 0.757895 0.164418 0.505263 0.387557 0.305263C0.598952 0.115789 0.892555 -2.48933e-08 1.1979 0C1.50325 2.48933e-08 1.79685 0.0947381 2.01999 0.284211L8.66718 6.24211C8.77287 6.33684 8.85508 6.45263 8.9138 6.57895C8.97252 6.70526 9.00776 6.84211 9.00776 6.97895C9.00776 7.11579 8.97252 7.25263 8.9138 7.38947C8.85508 7.51579 8.77287 7.63158 8.66718 7.72632L2.01999 13.6842C1.91429 13.7789 1.78511 13.8632 1.64418 13.9158C1.49151 13.9684 1.33883 14 1.18616 14C1.03348 14 0.869066 13.9789 0.728136 13.9263C0.587207 13.8737 0.458021 13.7895 0.34058 13.6947C0.234882 13.6 0.152674 13.4737 0.0939521 13.3474C0.023488 13.2211 -1.38155e-08 13.0842 0 12.9368C1.28287e-08 12.8 0.0352316 12.6632 0.0939522 12.5368C0.152674 12.4105 0.246627 12.2947 0.364068 12.1895L6.17742 6.97895L5.07347 6L0.364069 1.76842Z" fill="#181725"/>
</svg>
