<svg width="24" height="20" viewBox="0 0 24 20" fill="none" xmlns="http://www.w3.org/2000/svg">
<path d="M4.30971 8.8105L12.1338 16.6346L19.9579 8.8105C20.6497 8.11875 21.0383 7.18054 21.0383 6.20226C21.0383 5.22399 20.6497 4.28577 19.9579 3.59403C19.6154 3.25151 19.2088 2.97981 18.7612 2.79444C18.3137 2.60907 17.8341 2.51366 17.3497 2.51366C16.3714 2.51366 15.4332 2.90228 14.7414 3.59403L12.1338 6.20165L9.52618 3.59526C8.83267 2.91279 7.89758 2.53201 6.9246 2.53585C5.95161 2.5397 5.01956 2.92786 4.33147 3.61579C3.64338 4.30372 3.25499 5.23568 3.25092 6.20867C3.24684 7.18165 3.6274 8.11683 4.30971 8.8105ZM11.2646 1.85438L12.1338 2.72359L13.003 1.85438C13.5729 1.27946 14.2508 0.822771 14.9976 0.510526C15.7445 0.19828 16.5457 0.0366314 17.3552 0.0348587C18.1648 0.0330861 18.9667 0.191225 19.7149 0.500196C20.4631 0.809167 21.143 1.26289 21.7154 1.8353C22.2878 2.40772 22.7415 3.08757 23.0505 3.8358C23.3595 4.58404 23.5176 5.38594 23.5158 6.19546C23.5141 7.00498 23.3524 7.80618 23.0402 8.55305C22.7279 9.29993 22.2712 9.97778 21.6963 10.5477L13.0042 19.241C12.8901 19.3553 12.7545 19.446 12.6052 19.5079C12.456 19.5697 12.296 19.6016 12.1344 19.6016C11.9729 19.6016 11.8129 19.5697 11.6636 19.5079C11.5144 19.446 11.3788 19.3553 11.2646 19.241L2.57129 10.5489C1.98855 9.98085 1.52441 9.30272 1.2058 8.55387C0.88718 7.80502 0.720428 7.00036 0.715214 6.18657C0.71 5.37278 0.866428 4.56605 1.17542 3.81318C1.48442 3.06031 1.93983 2.37629 2.51524 1.8008C3.09065 1.22531 3.77461 0.769797 4.52743 0.460696C5.28026 0.151594 6.08696 -0.00494784 6.90076 0.000151192C7.71455 0.00525022 8.51924 0.171889 9.26813 0.4904C10.017 0.808911 10.6952 1.27295 11.2634 1.85561L11.2646 1.85438Z" fill="#53B175"/>
</svg>
