<svg width="48" height="56" viewBox="0 0 48 56" fill="none" xmlns="http://www.w3.org/2000/svg">
<path fill-rule="evenodd" clip-rule="evenodd" d="M32.6141 4.57668C32.8529 2.44304 31.3402 0.516384 29.2066 0.277543C27.0729 0.0227793 25.1463 1.55136 24.9074 3.68501C24.6208 6.12119 25.0189 9.03505 25.5284 12.0285C26.9456 12.4584 28.3149 13.0794 29.5887 13.8119C30.9581 10.5796 32.2956 7.37908 32.6141 4.57668ZM47.5974 13.9393C46.7534 11.9648 44.4606 11.0732 42.4861 11.9171C39.8907 13.0476 37.1998 15.2608 34.4929 17.5378C35.512 18.5409 36.4674 19.6714 37.2794 20.8975C40.3525 20.5153 43.2982 20.0536 45.5752 19.0664C47.5496 18.1906 48.4572 15.8977 47.5974 13.9393ZM41.0531 3.52578C39.3334 2.25196 36.8973 2.60226 35.6235 4.32192C33.6809 6.93325 32.3752 10.8343 30.9581 14.6399C31.4358 14.9583 31.8816 15.2768 32.3115 15.6111C32.63 15.8659 32.9644 16.1366 33.2987 16.4073C36.547 13.9552 39.9226 11.5668 41.8652 8.95543C43.139 7.23578 42.7728 4.7996 41.0531 3.52578Z" fill="#53B175"/>
<path d="M33.665 34.7025C32.4708 35.9923 31.197 37.1865 29.8436 38.3488C27.9488 39.9889 26.0221 41.5811 24.0636 43.1097C21.9618 41.82 20.4492 41.1671 20.1944 41.5015C19.9715 41.8041 20.8472 42.9186 22.4236 44.3676C17.1372 48.3005 11.5484 51.7717 5.54548 54.6219C4.60604 55.0677 3.61883 55.3861 2.64754 55.7365C2.39278 55.832 2.12209 55.832 2.01063 55.8479C0.482051 56.0231 0.020292 55.6091 0.083983 54.2079C0.275056 49.845 1.62849 45.7529 3.02969 41.6767C3.41184 40.5621 3.8099 39.4475 4.2239 38.3329C6.34162 39.6226 7.85428 40.2914 8.10904 39.957C8.37973 39.5908 7.10591 38.1259 4.97226 36.2948C6.50085 32.3459 8.20458 28.4608 10.2108 24.7349C14.2234 27.7124 17.7901 29.6709 18.1881 29.1296C18.5862 28.5882 15.6405 25.7062 11.5802 22.6968L11.4051 22.5694C12.1056 21.3752 12.8381 20.181 13.6183 19.0186C14.5896 17.5537 15.7838 16.2162 16.9621 14.9106C18.5384 13.175 20.5765 12.5858 22.8535 13.0954C30.1461 14.7195 35.2095 18.9072 37.598 26.0883C38.0756 27.5532 37.6457 28.9863 36.8974 30.3078C36.3878 31.1995 35.8305 32.0434 35.2095 32.8396C31.3562 30.0212 28.0125 28.206 27.6303 28.7156C27.2641 29.2251 29.9232 31.8523 33.665 34.7025Z" fill="#F3603F"/>
</svg>
