<svg width="48" height="56" viewBox="0 0 48 56" fill="none" xmlns="http://www.w3.org/2000/svg">
<path fill-rule="evenodd" clip-rule="evenodd" d="M32.6141 4.5767C32.853 2.44305 31.3403 0.516399 29.2067 0.277558C27.073 0.0227946 25.1464 1.55138 24.9075 3.68502C24.6209 6.1212 25.019 9.03506 25.5285 12.0285C26.9456 12.4585 28.315 13.0794 29.5888 13.8119C30.9582 10.5796 32.2957 7.3791 32.6141 4.5767ZM47.5974 13.9393C46.7535 11.9648 44.4607 11.0732 42.4862 11.9171C39.8908 13.0476 37.1999 15.2609 34.493 17.5378C35.5121 18.5409 36.4674 19.6715 37.2795 20.8975C40.3526 20.5154 43.2983 20.0536 45.5753 19.0664C47.5497 18.1906 48.4573 15.8978 47.5974 13.9393ZM41.0532 3.5258C39.3335 2.25198 36.8974 2.60228 35.6235 4.32193C33.681 6.93326 32.3753 10.8343 30.9582 14.6399C31.4359 14.9583 31.8817 15.2768 32.3116 15.6112C32.6301 15.8659 32.9644 16.1366 33.2988 16.4073C36.5471 13.9552 39.9227 11.5668 41.8653 8.95545C43.1391 7.23579 42.7729 4.79962 41.0532 3.5258Z" fill="#53B175"/>
<path d="M33.6651 34.7025C32.4709 35.9923 31.1971 37.1865 29.8437 38.3488C27.9489 39.9889 26.0222 41.5812 24.0637 43.1097C21.9619 41.82 20.4493 41.1672 20.1945 41.5015C19.9716 41.8041 20.8473 42.9187 22.4237 44.3676C17.1373 48.3005 11.5484 51.7717 5.54557 54.6219C4.60613 55.0677 3.61892 55.3862 2.64764 55.7365C2.39287 55.832 2.12218 55.832 2.01073 55.8479C0.482143 56.0231 0.0203836 55.6091 0.0840745 54.2079C0.275147 49.8451 1.62858 45.7529 3.02978 41.6767C3.41193 40.5621 3.81 39.4475 4.22399 38.3329C6.34171 39.6227 7.85437 40.2914 8.10913 39.957C8.37982 39.5908 7.106 38.1259 4.97236 36.2948C6.50094 32.346 8.20467 28.4608 10.2109 24.7349C14.2235 27.7124 17.7902 29.6709 18.1882 29.1296C18.5863 28.5882 15.6406 25.7062 11.5803 22.6968L11.4051 22.5694C12.1057 21.3752 12.8382 20.181 13.6184 19.0186C14.5897 17.5537 15.7839 16.2162 16.9622 14.9106C18.5385 13.175 20.5766 12.5858 22.8536 13.0954C30.1462 14.7195 35.2096 18.9072 37.598 26.0883C38.0757 27.5532 37.6458 28.9863 36.8974 30.3079C36.3879 31.1995 35.8306 32.0434 35.2096 32.8396C31.3563 30.0212 28.0126 28.2061 27.6304 28.7156C27.2642 29.2251 29.9233 31.8524 33.6651 34.7025Z" fill="#F3603F"/>
</svg>
