<svg width="18" height="18" viewBox="0 0 18 18" fill="none" xmlns="http://www.w3.org/2000/svg">
<path d="M17.5012 9.37894C17.5012 9.75503 17.357 10.1186 17.0874 10.3819C16.8241 10.6514 16.4604 10.8018 16.0842 10.8018H10.4163V16.4682C10.4163 16.8443 10.2658 17.2079 9.99625 17.4711C9.73291 17.7344 9.37553 17.8848 8.99935 17.8848C8.62316 17.8848 8.25951 17.7344 7.99618 17.4711C7.72657 17.2079 7.5761 16.8443 7.5761 16.4682V10.8018H1.90819C1.532 10.8018 1.16835 10.6514 0.905019 10.3819C0.641686 10.1186 0.491211 9.75503 0.491211 9.37894C0.491211 9.00285 0.641686 8.64557 0.905019 8.37604C1.16835 8.11278 1.532 7.96234 1.90819 7.96234H7.5761V2.29592C7.5761 1.91983 7.72657 1.55628 7.99618 1.29301C8.25951 1.02348 8.62316 0.873047 8.99935 0.873047C9.37553 0.873047 9.73291 1.02348 9.99625 1.29301C10.2658 1.55628 10.4163 1.91983 10.4163 2.29592V7.96234H16.0842C16.4604 7.96234 16.8241 8.11278 17.0874 8.37604C17.357 8.64557 17.5012 9.00285 17.5012 9.37894Z" fill="white"/>
</svg>
