<svg width="30" height="19" viewBox="0 0 30 19" fill="none" xmlns="http://www.w3.org/2000/svg">
<path d="M19.0496 14.0005C19.8375 14.0005 20.6177 13.8453 21.3457 13.5438C22.0736 13.2423 22.7351 12.8003 23.2922 12.2431C23.8494 11.686 24.2913 11.0246 24.5928 10.2966C24.8944 9.56865 25.0496 8.78843 25.0496 8.0005C25.0496 7.21257 24.8944 6.43236 24.5928 5.7044C24.2913 4.97645 23.8494 4.31501 23.2922 3.75786C22.7351 3.20071 22.0736 2.75875 21.3457 2.45723C20.6177 2.1557 19.8375 2.0005 19.0496 2.0005C17.4583 2.0005 15.9321 2.63264 14.8069 3.75786C13.6817 4.88308 13.0496 6.4092 13.0496 8.0005C13.0496 9.5918 13.6817 11.1179 14.8069 12.2431C15.9321 13.3684 17.4583 14.0005 19.0496 14.0005ZM28.9496 16.4865C29.045 16.5788 29.1211 16.6892 29.1734 16.8113C29.2258 16.9333 29.2532 17.0645 29.2543 17.1973C29.2554 17.3301 29.23 17.4618 29.1796 17.5846C29.1292 17.7075 29.0549 17.8191 28.9609 17.9129C28.867 18.0067 28.7553 18.0809 28.6324 18.1311C28.5094 18.1813 28.3777 18.2065 28.2449 18.2052C28.1122 18.204 27.981 18.1763 27.859 18.1238C27.737 18.0713 27.6267 17.9951 27.5346 17.8995L23.9546 14.3195C22.347 15.5674 20.3244 16.1557 18.2983 15.9647C16.2723 15.7737 14.3952 14.8178 13.0491 13.2916C11.7031 11.7653 10.9893 9.78345 11.053 7.74943C11.1167 5.7154 11.9532 3.78213 13.3922 2.34315C14.8312 0.904173 16.7645 0.0676701 18.7985 0.00392902C20.8325 -0.0598121 22.8144 0.654 24.3406 2.00005C25.8669 3.34611 26.8228 5.22322 27.0138 7.24926C27.2047 9.2753 26.6164 11.298 25.3686 12.9055L28.9496 16.4865Z" fill="#181725"/>
<path d="M0.905029 1.19961C0.905029 0.537085 1.44211 0 2.10464 0H8.56041C9.22293 0 9.76002 0.537085 9.76002 1.19961C9.76002 1.86214 9.22294 2.39923 8.56041 2.39923H2.10465C1.44212 2.39923 0.905029 1.86214 0.905029 1.19961Z" fill="#181725"/>
<path d="M0.905029 8.63781C0.905029 7.97528 1.44211 7.43819 2.10464 7.43819H6.16956C6.83209 7.43819 7.36917 7.97528 7.36917 8.63781C7.36917 9.30034 6.83209 9.83742 6.16956 9.83742H2.10464C1.44211 9.83742 0.905029 9.30034 0.905029 8.63781Z" fill="#181725"/>
<path d="M0.905029 16.0764C0.905029 15.4139 1.44211 14.8768 2.10464 14.8768H8.56041C9.22293 14.8768 9.76002 15.4139 9.76002 16.0764C9.76002 16.7389 9.22294 17.276 8.56041 17.276H2.10465C1.44212 17.276 0.905029 16.7389 0.905029 16.0764Z" fill="#181725"/>
</svg>
