<svg width="20" height="19" viewBox="0 0 20 19" fill="none" xmlns="http://www.w3.org/2000/svg">
<path d="M15.4131 6.79302L16.8803 5.32583C18.7531 6.40629 20 7.89939 20 9.55397C20 12.8571 15.0582 15.5274 10.0327 15.5344C9.01002 15.5343 7.99014 15.4274 6.98967 15.2154L8.73096 13.4751C9.15557 13.519 9.59015 13.5419 10.0297 13.5409H10.0317C9.61805 13.5409 9.21936 13.4781 8.84459 13.3615L10.8191 11.386C11.2876 11.1846 11.6634 10.8089 11.8657 10.3404L13.8392 8.36586C14.025 8.96103 14.0687 9.59149 13.9666 10.2066C13.8646 10.8217 13.6197 11.4043 13.2516 11.9075C12.8836 12.4108 12.4026 12.8207 11.8474 13.1044C11.2921 13.3881 10.6781 13.5376 10.0546 13.5409C14.2858 13.5259 18.0066 11.364 18.0066 9.55397C18.0066 8.61405 16.9879 7.57446 15.4131 6.79302ZM6.14145 10.4261C6.01083 9.84343 6.01275 9.23885 6.1471 8.65701C6.28144 8.07518 6.54476 7.53095 6.91762 7.06452C7.29047 6.59809 7.76334 6.22137 8.3013 5.96218C8.83926 5.70299 9.42858 5.56795 10.0257 5.56704C5.8215 5.55209 2.05883 7.73792 2.05883 9.55397C2.05883 10.447 2.95988 11.4248 4.37823 12.1893L2.92499 13.6406C1.19566 12.5721 0.0653687 11.1338 0.0653687 9.55397C0.0653687 6.2508 5.03308 3.55663 10.0327 3.57357C10.9437 3.57656 11.8537 3.66727 12.7328 3.83472L10.9617 5.60491C10.6726 5.58299 10.3796 5.57003 10.0845 5.56704C10.3656 5.57102 10.6397 5.60392 10.9048 5.66272L6.14045 10.4261H6.14145ZM19.095 0.291332C19.2818 0.478247 19.3868 0.731724 19.3868 0.996022C19.3868 1.26032 19.2818 1.5138 19.095 1.70071L2.18044 18.6153C2.08856 18.7105 1.97863 18.7865 1.85706 18.8389C1.73549 18.8912 1.60472 18.9188 1.47238 18.92C1.34003 18.9213 1.20877 18.8961 1.08624 18.8461C0.96371 18.7961 0.852371 18.7221 0.75872 18.6286C0.665069 18.5351 0.59098 18.4239 0.540777 18.3014C0.490574 18.1789 0.465261 18.0477 0.466317 17.9154C0.467372 17.783 0.494774 17.6522 0.546924 17.5306C0.599074 17.4089 0.674928 17.2989 0.770059 17.2069L17.6846 0.292328C17.7772 0.199656 17.8871 0.126138 18.0081 0.0759779C18.1291 0.025818 18.2588 0 18.3898 0C18.5208 0 18.6505 0.025818 18.7715 0.0759779C18.8925 0.126138 19.0024 0.199656 19.095 0.292328V0.291332Z" fill="#7C7C7C"/>
</svg>
