<svg width="28" height="31" viewBox="0 0 28 31" fill="none" xmlns="http://www.w3.org/2000/svg">
<path fill-rule="evenodd" clip-rule="evenodd" d="M18.7684 2.39517C18.9006 1.21408 18.0633 0.147568 16.8822 0.0153565C15.7011 -0.12567 14.6346 0.720487 14.5023 1.90158C14.3437 3.25014 14.564 4.86313 14.8461 6.52018C15.6306 6.75817 16.3886 7.10192 17.0937 7.50737C17.8517 5.7181 18.5921 3.94646 18.7684 2.39517ZM27.0625 7.57788C26.5953 6.48493 25.3261 5.99134 24.2331 6.45849C22.7964 7.08429 21.3069 8.30945 19.8085 9.56987C20.3726 10.1252 20.9014 10.751 21.3509 11.4297C23.0521 11.2181 24.6827 10.9625 25.9431 10.416C27.036 9.93125 27.5384 8.66202 27.0625 7.57788ZM23.4399 1.81344C22.488 1.10831 21.1394 1.30222 20.4343 2.25415C19.3589 3.69966 18.6362 5.85912 17.8517 7.9657C18.1161 8.14198 18.3629 8.31827 18.6009 8.50336C18.7772 8.64439 18.9623 8.79423 19.1474 8.94407C20.9455 7.58669 22.8141 6.26458 23.8894 4.81906C24.5945 3.86713 24.3918 2.51857 23.4399 1.81344Z" fill="#53B175"/>
<path d="M19.35 19.0715C18.6889 19.7854 17.9838 20.4465 17.2346 21.0899C16.1857 21.9978 15.1192 22.8792 14.035 23.7253C12.8716 23.0114 12.0342 22.65 11.8932 22.8351C11.7698 23.0026 12.2546 23.6196 13.1272 24.4216C10.2009 26.5987 7.10713 28.5202 3.7842 30.0979C3.26417 30.3447 2.71769 30.521 2.18003 30.7149C2.039 30.7678 1.88916 30.7678 1.82746 30.7766C0.981307 30.8736 0.725697 30.6444 0.760954 29.8688C0.866723 27.4537 1.61592 25.1885 2.39157 22.9321C2.60311 22.3151 2.82346 21.6981 3.05263 21.0811C4.22491 21.795 5.06225 22.1652 5.20328 21.9801C5.35312 21.7774 4.64799 20.9665 3.46689 19.9529C4.31305 17.767 5.25616 15.6163 6.36674 13.5538C8.5879 15.2021 10.5623 16.2862 10.7826 15.9865C11.003 15.6868 9.37236 14.0915 7.12476 12.4256L7.0278 12.3551C7.41562 11.694 7.82107 11.033 8.25296 10.3895C8.79063 9.57864 9.45169 8.83826 10.1039 8.1155C10.9765 7.15476 12.1047 6.82863 13.3652 7.11069C17.402 8.00973 20.2049 10.3278 21.527 14.303C21.7915 15.1139 21.5535 15.9072 21.1392 16.6388C20.8572 17.1324 20.5487 17.5995 20.2049 18.0402C18.0719 16.4801 16.2209 15.4753 16.0094 15.7573C15.8067 16.0394 17.2786 17.4937 19.35 19.0715Z" fill="#F3603F"/>
</svg>
