<svg width="23" height="20" viewBox="0 0 23 20" fill="none" xmlns="http://www.w3.org/2000/svg">
<path d="M3.69423 9.0097L11.5183 16.8338L19.3424 9.0097C20.0342 8.31795 20.4228 7.37974 20.4228 6.40146C20.4228 5.42319 20.0342 4.48497 19.3424 3.79323C18.9999 3.45071 18.5933 3.17901 18.1458 2.99364C17.6982 2.80827 17.2186 2.71286 16.7342 2.71286C15.7559 2.71286 14.8177 3.10148 14.126 3.79323L11.5183 6.40085L8.91071 3.79446C8.2172 3.11199 7.28211 2.73121 6.30912 2.73505C5.33614 2.7389 4.40409 3.12706 3.71599 3.81499C3.0279 4.50292 2.63952 5.43488 2.63544 6.40787C2.63137 7.38085 3.01193 8.31603 3.69423 9.0097ZM10.6491 2.05358L11.5183 2.92279L12.3875 2.05358C12.9574 1.47866 13.6353 1.02197 14.3822 0.709725C15.1291 0.39748 15.9302 0.235831 16.7398 0.234058C17.5493 0.232286 18.3512 0.390424 19.0994 0.699396C19.8477 1.00837 20.5275 1.46209 21.0999 2.0345C21.6723 2.60692 22.1261 3.28676 22.435 4.035C22.744 4.78324 22.9021 5.58514 22.9004 6.39466C22.8986 7.20418 22.7369 8.00538 22.4247 8.75225C22.1125 9.49913 21.6558 10.177 21.0808 10.7469L12.3888 19.4402C12.2746 19.5545 12.139 19.6452 11.9897 19.7071C11.8405 19.7689 11.6805 19.8008 11.5189 19.8008C11.3574 19.8008 11.1974 19.7689 11.0481 19.7071C10.8989 19.6452 10.7633 19.5545 10.6491 19.4402L1.95582 10.7481C1.37308 10.18 0.90894 9.50192 0.590323 8.75307C0.271706 8.00422 0.104954 7.19956 0.0997394 6.38577C0.0945252 5.57198 0.250953 4.76525 0.559948 4.01238C0.868943 3.25951 1.32436 2.57549 1.89977 2C2.47518 1.42451 3.15913 0.968997 3.91196 0.659895C4.66478 0.350794 5.47149 0.194252 6.28528 0.199351C7.09908 0.20445 7.90376 0.371088 8.65266 0.689599C9.40155 1.00811 10.0797 1.47215 10.6479 2.05481L10.6491 2.05358Z" fill="#7C7C7C"/>
</svg>
