<svg width="17" height="20" viewBox="0 0 17 20" fill="none" xmlns="http://www.w3.org/2000/svg">
<path d="M16.4346 13.2069L14.7453 11.397V6.93728C14.7677 5.2812 14.2271 3.67239 13.2231 2.40789C12.2191 1.14339 10.8195 0.308614 9.28294 0.0576935C8.39115 -0.0674318 7.48456 0.0115112 6.62368 0.289255C5.76279 0.566999 4.9674 1.03716 4.29057 1.66836C3.61374 2.29956 3.07105 3.07729 2.69869 3.94965C2.32633 4.82202 2.13288 5.76896 2.13124 6.72729V11.397L0.441862 13.2069C0.229663 13.4368 0.0857634 13.7281 0.0281525 14.0446C-0.0294583 14.3612 0.00177574 14.6887 0.11795 14.9864C0.234124 15.2841 0.430084 15.5387 0.681332 15.7184C0.93258 15.8981 1.22797 15.9949 1.53057 15.9967H4.68408V16.3367C4.72792 17.3519 5.14767 18.3071 5.85137 18.9931C6.55506 19.6791 7.4853 20.0399 8.43825 19.9965C9.3912 20.0399 10.3214 19.6791 11.0251 18.9931C11.7288 18.3071 12.1486 17.3519 12.1924 16.3367V15.9967H15.3459C15.6485 15.9949 15.9439 15.8981 16.1952 15.7184C16.4464 15.5387 16.6424 15.2841 16.7585 14.9864C16.8747 14.6887 16.906 14.3612 16.8483 14.0446C16.7907 13.7281 16.6468 13.4368 16.4346 13.2069ZM10.3153 16.3367C10.2633 16.8177 10.0391 17.2587 9.6894 17.5679C9.33972 17.8771 8.89155 18.0307 8.43825 17.9966C7.98495 18.0307 7.53678 17.8771 7.1871 17.5679C6.83743 17.2587 6.61321 16.8177 6.56116 16.3367V15.9967H10.3153V16.3367ZM2.3471 13.9969L3.45459 12.8169C3.63025 12.6309 3.76962 12.4096 3.86466 12.1659C3.95969 11.9222 4.00852 11.6609 4.00833 11.397V6.72729C4.00884 6.05273 4.14477 5.3861 4.40701 4.77212C4.66925 4.15814 5.05173 3.61103 5.52877 3.16751C5.99937 2.71322 6.55701 2.3733 7.16309 2.1713C7.76917 1.96929 8.40921 1.91002 9.03892 1.99758C10.1243 2.18534 11.1095 2.78454 11.8132 3.68485C12.5168 4.58517 12.8914 5.72599 12.8682 6.89728V11.397C12.8667 11.6602 12.9141 11.9211 13.0075 12.1648C13.1009 12.4084 13.2386 12.6301 13.4125 12.8169L14.5294 13.9969H2.3471Z" fill="#181725"/>
</svg>
