<svg width="10" height="18" viewBox="0 0 10 18" fill="none" xmlns="http://www.w3.org/2000/svg">
<path d="M0.404172 2.27368C0.169491 2.01654 0.0391134 1.6782 0.0521512 1.32632C0.0521512 0.974437 0.182529 0.649624 0.430248 0.392481C0.664928 0.148872 0.990873 0 1.32986 0C1.66884 0 1.99479 0.121805 2.2425 0.365414L9.6219 8.02556C9.73924 8.14737 9.83051 8.29624 9.8957 8.45865C9.96089 8.62105 10 8.79699 10 8.97293C10 9.14887 9.96089 9.32481 9.8957 9.50075C9.83051 9.66316 9.73924 9.81203 9.6219 9.93383L2.2425 17.594C2.12516 17.7158 1.98175 17.8241 1.82529 17.8917C1.6558 17.9594 1.48631 18 1.31682 18C1.14733 18 0.964798 17.9729 0.808344 17.9053C0.65189 17.8376 0.508474 17.7293 0.378096 17.6075C0.260756 17.4857 0.169491 17.3233 0.104302 17.1609C0.0260755 16.9985 0 16.8226 0 16.6331C0 16.4571 0.0391133 16.2812 0.104302 16.1188C0.169491 15.9564 0.273794 15.8075 0.404172 15.6722L6.85789 8.97293L5.63233 7.71429L0.404172 2.27368Z" fill="#FFF9FF"/>
</svg>
