<svg width="72" height="116" viewBox="0 0 72 116" fill="none" xmlns="http://www.w3.org/2000/svg">
<path d="M30.843 0.349505C14.4067 2.67391 1.84097 16.5984 0.310178 34.0534C-0.743534 46.0614 3.54599 57.0344 10.9552 64.6392C13.8093 67.5688 16.4602 70.6958 18.8912 73.9938C25.7901 83.3485 30.5152 94.2864 32.9587 105.86L34.9251 115.175C35.0122 115.592 35.3606 115.886 35.763 115.886C36.1654 115.886 36.5139 115.592 36.601 115.175L38.6877 105.272C41.0607 94.0188 45.6115 83.3748 52.274 74.2482C54.6511 70.994 57.2563 67.9284 60.1063 65.1084C67.0384 58.2449 71.3736 48.4823 71.3736 37.6453C71.3694 15.1424 52.7013 -2.74678 30.843 0.349505Z" fill="url(#paint0_linear_1215_96314)"/>
<path d="M43.5648 48.8594C47.8758 44.3019 47.8758 36.9128 43.5648 32.3553C39.2538 27.7978 32.2643 27.7978 27.9534 32.3553C23.6424 36.9128 23.6424 44.3019 27.9534 48.8594C32.2643 53.4169 39.2538 53.4169 43.5648 48.8594Z" fill="white"/>
<defs>
<linearGradient id="paint0_linear_1215_96314" x1="45.9449" y1="78.3106" x2="17.12" y2="-13.4626" gradientUnits="userSpaceOnUse">
<stop stop-color="#5565EE"/>
<stop offset="0.3091" stop-color="#5F75FF"/>
<stop offset="0.5137" stop-color="#6E89FA"/>
<stop offset="0.7638" stop-color="#6E89FA"/>
<stop offset="1" stop-color="#7D99FD"/>
</linearGradient>
</defs>
</svg>
