<svg width="21" height="20" viewBox="0 0 21 20" fill="none" xmlns="http://www.w3.org/2000/svg">
<path d="M8.28592 19.5629C7.70316 19.5629 7.14427 19.3053 6.7322 18.8467C6.32013 18.3881 6.08863 17.7661 6.08863 17.1175C6.08863 16.469 6.32013 15.847 6.7322 15.3884C7.14427 14.9298 7.70316 14.6722 8.28592 14.6722C8.86867 14.6722 9.42756 14.9298 9.83963 15.3884C10.2517 15.847 10.4832 16.469 10.4832 17.1175C10.4832 17.7661 10.2517 18.3881 9.83963 18.8467C9.42756 19.3053 8.86867 19.5629 8.28592 19.5629ZM15.9764 19.5629C15.3937 19.5629 14.8348 19.3053 14.4227 18.8467C14.0106 18.3881 13.7791 17.7661 13.7791 17.1175C13.7791 16.469 14.0106 15.847 14.4227 15.3884C14.8348 14.9298 15.3937 14.6722 15.9764 14.6722C16.5592 14.6722 17.1181 14.9298 17.5301 15.3884C17.9422 15.847 18.1737 16.469 18.1737 17.1175C18.1737 17.7661 17.9422 18.3881 17.5301 18.8467C17.1181 19.3053 16.5592 19.5629 15.9764 19.5629ZM1.65232 2.35122C1.37806 2.34137 1.11799 2.2132 0.927104 1.99381C0.736223 1.77441 0.629498 1.481 0.629498 1.17561C0.629498 0.870221 0.736223 0.576806 0.927104 0.357411C1.11799 0.138017 1.37806 0.0098448 1.65232 0L2.91686 0C3.90783 0 4.76477 0.765399 4.98011 1.84136L6.3567 8.73973C6.57204 9.81569 7.42898 10.5811 8.41995 10.5811H16.6729L18.2572 3.52621H7.99038C7.7187 3.51242 7.46225 3.3826 7.27438 3.16375C7.08651 2.94491 6.98167 2.65389 6.98167 2.35122C6.98167 2.04855 7.08651 1.75753 7.27438 1.53868C7.46225 1.31984 7.7187 1.19002 7.99038 1.17622H18.2572C18.5784 1.17611 18.8953 1.2575 19.184 1.4142C19.4727 1.57089 19.7254 1.79876 19.9231 2.0805C20.1207 2.36223 20.258 2.6904 20.3246 3.04007C20.3912 3.38974 20.3853 3.7517 20.3073 4.09843L18.723 11.1509C18.6088 11.6597 18.345 12.1115 17.9735 12.4343C17.602 12.7571 17.1442 12.9324 16.6729 12.9323H8.41995C7.45842 12.9325 6.52559 12.5676 5.77554 11.898C5.02548 11.2285 4.50306 10.2942 4.29455 9.24959L2.91686 2.35122H1.65232Z" fill="#53B175"/>
</svg>
