<svg width="18" height="18" viewBox="0 0 18 18" fill="none" xmlns="http://www.w3.org/2000/svg">
<path d="M17.335 8.83423C17.335 9.21006 17.1908 9.57336 16.9214 9.83644C16.6582 10.1058 16.2948 10.2561 15.9188 10.2561H10.2542V15.9186C10.2542 16.2944 10.1039 16.6577 9.83441 16.9208C9.57123 17.1839 9.21406 17.3342 8.8381 17.3342C8.46213 17.3342 8.09869 17.1839 7.83552 16.9208C7.56607 16.6577 7.41569 16.2944 7.41569 15.9186V10.2561H1.75111C1.37514 10.2561 1.01171 10.1058 0.748528 9.83644C0.485351 9.57336 0.334964 9.21006 0.334964 8.83423C0.334964 8.4584 0.485351 8.10136 0.748528 7.83202C1.01171 7.56894 1.37514 7.41861 1.75111 7.41861H7.41569V1.75611C7.41569 1.38029 7.56607 1.01698 7.83552 0.753904C8.09869 0.48456 8.46213 0.334229 8.8381 0.334229C9.21406 0.334229 9.57123 0.48456 9.83441 0.753904C10.1039 1.01698 10.2542 1.38029 10.2542 1.75611V7.41861H15.9188C16.2948 7.41861 16.6582 7.56894 16.9214 7.83202C17.1908 8.10136 17.335 8.4584 17.335 8.83423Z" fill="white"/>
</svg>
