<svg width="18" height="20" viewBox="0 0 18 20" fill="none" xmlns="http://www.w3.org/2000/svg">
<path d="M5.02987 10.07C5.1707 10.0175 5.32215 9.99026 5.47526 9.98978C5.62837 9.9893 5.78003 10.0156 5.92129 10.0672C6.06255 10.1188 6.19053 10.1945 6.29767 10.29C6.40481 10.3855 6.48894 10.4988 6.54508 10.6231C6.60122 10.7475 6.62822 10.8804 6.62451 11.014C6.62079 11.1477 6.58643 11.2793 6.52344 11.4011C6.46046 11.523 6.37013 11.6325 6.25781 11.7234C6.14549 11.8142 6.01344 11.8845 5.86949 11.93C5.1038 12.1934 4.44664 12.6519 3.98351 13.2458C3.52038 13.8397 3.27273 14.5415 3.27276 15.26V17C3.27276 17.2652 3.39344 17.5196 3.60825 17.7071C3.82307 17.8946 4.11441 18 4.41821 18H13.5818C13.8856 18 14.1769 17.8946 14.3917 17.7071C14.6065 17.5196 14.7272 17.2652 14.7272 17V15.353C14.7273 14.6115 14.4693 13.8874 13.9874 13.2768C13.5054 12.6662 12.8223 12.1979 12.0285 11.934C11.8837 11.8901 11.7504 11.8213 11.6366 11.7316C11.5228 11.6419 11.4307 11.5332 11.3659 11.4119C11.3011 11.2905 11.2649 11.1591 11.2594 11.0253C11.2538 10.8916 11.2791 10.7582 11.3337 10.6331C11.3883 10.508 11.4712 10.3938 11.5773 10.2972C11.6834 10.2006 11.8107 10.1235 11.9515 10.0706C12.0924 10.0177 12.2439 9.99008 12.3973 9.98929C12.5506 9.98849 12.7025 10.0146 12.8441 10.066C14.0716 10.4742 15.128 11.1983 15.8734 12.1425C16.6188 13.0867 17.018 14.2063 17.0181 15.353V17C17.0181 17.7956 16.6561 18.5587 16.0116 19.1213C15.3672 19.6839 14.4931 20 13.5818 20H4.41821C3.50683 20 2.63279 19.6839 1.98835 19.1213C1.34391 18.5587 0.981869 17.7956 0.981869 17L0.981869 15.26C0.982026 14.1402 1.3682 13.0463 2.09016 12.1206C2.81211 11.195 3.83643 10.4805 5.02987 10.07ZM8.99999 0C10.2152 0 11.3805 0.421427 12.2398 1.17157C13.099 1.92172 13.5818 2.93913 13.5818 4V6C13.5818 7.06087 13.099 8.07828 12.2398 8.82843C11.3805 9.57857 10.2152 10 8.99999 10C7.78482 10 6.61943 9.57857 5.76018 8.82843C4.90093 8.07828 4.41821 7.06087 4.41821 6V4C4.41821 2.93913 4.90093 1.92172 5.76018 1.17157C6.61943 0.421427 7.78482 0 8.99999 0ZM8.99999 2C8.39241 2 7.80971 2.21071 7.38008 2.58579C6.95046 2.96086 6.7091 3.46957 6.7091 4V6C6.7091 6.53043 6.95046 7.03914 7.38008 7.41421C7.80971 7.78929 8.39241 8 8.99999 8C9.60757 8 10.1903 7.78929 10.6199 7.41421C11.0495 7.03914 11.2909 6.53043 11.2909 6V4C11.2909 3.46957 11.0495 2.96086 10.6199 2.58579C10.1903 2.21071 9.60757 2 8.99999 2Z" fill="#181725"/>
</svg>
