<svg width="17" height="19" viewBox="0 0 17 19" fill="none" xmlns="http://www.w3.org/2000/svg">
<path d="M7.39144 14.0005C8.10324 14.0005 8.80808 13.8453 9.4657 13.5438C10.1233 13.2423 10.7208 12.8003 11.2242 12.2431C11.7275 11.686 12.1267 11.0246 12.3991 10.2966C12.6715 9.56865 12.8117 8.78843 12.8117 8.0005C12.8117 7.21257 12.6715 6.43236 12.3991 5.7044C12.1267 4.97645 11.7275 4.31501 11.2242 3.75786C10.7208 3.20071 10.1233 2.75875 9.4657 2.45723C8.80808 2.1557 8.10324 2.0005 7.39144 2.0005C5.95389 2.0005 4.57522 2.63264 3.55872 3.75786C2.54222 4.88308 1.97115 6.4092 1.97115 8.0005C1.97115 9.5918 2.54222 11.1179 3.55872 12.2431C4.57522 13.3684 5.95389 14.0005 7.39144 14.0005ZM13.1008 12.9065L16.3349 16.4865C16.4211 16.5788 16.4899 16.6892 16.5372 16.8113C16.5844 16.9333 16.6093 17.0645 16.6102 17.1973C16.6112 17.3301 16.5882 17.4618 16.5427 17.5846C16.4972 17.7075 16.4301 17.8191 16.3452 17.9129C16.2603 18.0067 16.1594 18.0809 16.0484 18.1311C15.9373 18.1813 15.8183 18.2065 15.6984 18.2052C15.5784 18.204 15.4599 18.1763 15.3497 18.1238C15.2395 18.0713 15.1399 17.9951 15.0566 17.8995L11.8225 14.3195C10.3703 15.5674 8.54307 16.1557 6.71278 15.9647C4.88249 15.7737 3.18675 14.8178 1.97075 13.2916C0.754745 11.7653 0.109901 9.78345 0.167483 7.74943C0.225066 5.7154 0.980747 3.78213 2.28069 2.34315C3.58064 0.904173 5.32713 0.0676701 7.16462 0.00392902C9.00212 -0.0598121 10.7925 0.654 12.1713 2.00005C13.5501 3.34611 14.4136 5.22322 14.5861 7.24926C14.7587 9.2753 14.2272 11.298 13.0999 12.9055L13.1008 12.9065Z" fill="#181725"/>
</svg>
