<svg width="14" height="8" viewBox="0 0 14 8" fill="none" xmlns="http://www.w3.org/2000/svg">
<path d="M12.1225 1.11715C12.3083 0.952873 12.5526 0.861608 12.8068 0.870734C13.0609 0.870734 13.2955 0.961999 13.4812 1.1354C13.6571 1.29968 13.7646 1.52784 13.7646 1.76513C13.7646 2.00242 13.6767 2.23058 13.5007 2.40398L7.96841 7.56956C7.88044 7.6517 7.77292 7.71558 7.65563 7.76122C7.53833 7.80685 7.41126 7.83423 7.2842 7.83423C7.15713 7.83423 7.03006 7.80685 6.90299 7.76122C6.7857 7.71558 6.67818 7.6517 6.59021 7.56956L1.05788 2.40398C0.969911 2.32184 0.891716 2.22145 0.842844 2.11193C0.793971 1.99329 0.764648 1.87465 0.764648 1.756C0.764648 1.63736 0.784197 1.50959 0.833069 1.40007C0.881941 1.29055 0.960137 1.19016 1.04811 1.0989C1.13608 1.01676 1.25337 0.952873 1.37066 0.907241C1.48796 0.852482 1.61502 0.834229 1.75187 0.834229C1.87893 0.834229 2.006 0.861608 2.12329 0.907241C2.24059 0.952873 2.34811 1.02588 2.44585 1.11715L7.2842 5.63475L8.19322 4.77686L12.1225 1.11715Z" fill="#7C7C7C"/>
</svg>
