<svg width="19" height="20" viewBox="0 0 19 20" fill="none" xmlns="http://www.w3.org/2000/svg">
<path d="M9.35991 0C7.5087 0 5.69905 0.58649 4.15983 1.6853C2.6206 2.78412 1.42091 4.3459 0.712485 6.17317C0.0040555 8.00043 -0.181302 10.0111 0.179852 11.9509C0.541006 13.8907 1.43245 15.6725 2.74146 17.0711C4.05046 18.4696 5.71824 19.422 7.53388 19.8079C9.34953 20.1937 11.2315 19.9957 12.9418 19.2388C14.6521 18.4819 16.1139 17.2002 17.1424 15.5557C18.1709 13.9112 18.7198 11.9778 18.7198 10C18.7198 8.68678 18.4777 7.38642 18.0073 6.17317C17.537 4.95991 16.8475 3.85752 15.9784 2.92893C15.1092 2.00035 14.0774 1.26375 12.9418 0.761205C11.8062 0.258658 10.5891 0 9.35991 0ZM9.35991 18C7.87894 18 6.43123 17.5308 5.19984 16.6518C3.96846 15.7727 3.00871 14.5233 2.44197 13.0615C1.87523 11.5997 1.72694 9.99113 2.01586 8.43928C2.30479 6.88743 3.01794 5.46197 4.06515 4.34315C5.11235 3.22433 6.44657 2.4624 7.89909 2.15372C9.35161 1.84504 10.8572 2.00346 12.2254 2.60896C13.5937 3.21447 14.7631 4.23984 15.5859 5.55544C16.4087 6.87103 16.8478 8.41775 16.8478 10C16.8478 12.1217 16.0589 14.1566 14.6547 15.6569C13.2504 17.1571 11.3458 18 9.35991 18Z" fill="#181725"/>
<path d="M9.56351 4.00007C8.69467 4.00007 7.86142 4.36882 7.24705 5.02519C6.63269 5.68157 6.28755 6.57181 6.28755 7.50007C6.28755 7.76528 6.38616 8.01964 6.56169 8.20717C6.73722 8.39471 6.9753 8.50007 7.22354 8.50007C7.47178 8.50007 7.70985 8.39471 7.88538 8.20717C8.06091 8.01964 8.15953 7.76528 8.15953 7.50007C8.15953 7.2034 8.24187 6.91339 8.39614 6.66671C8.55041 6.42004 8.76969 6.22778 9.02623 6.11425C9.28278 6.00072 9.56507 5.97101 9.83742 6.02889C10.1098 6.08677 10.3599 6.22963 10.5563 6.43941C10.7526 6.64919 10.8863 6.91646 10.9405 7.20743C10.9947 7.4984 10.9669 7.8 10.8606 8.07409C10.7544 8.34818 10.5744 8.58245 10.3435 8.74727C10.1126 8.91209 9.8412 9.00007 9.56351 9.00007C9.31527 9.00007 9.0772 9.10542 8.90167 9.29296C8.72614 9.4805 8.62752 9.73485 8.62752 10.0001V12.0001C8.62752 12.2653 8.72614 12.5196 8.90167 12.7072C9.0772 12.8947 9.31527 13.0001 9.56351 13.0001C9.81175 13.0001 10.0498 12.8947 10.2254 12.7072C10.4009 12.5196 10.4995 12.2653 10.4995 12.0001V10.8401C11.2559 10.6041 11.9069 10.0839 12.3326 9.37551C12.7583 8.66709 12.93 7.81813 12.816 6.98513C12.702 6.15213 12.3101 5.39122 11.7124 4.84266C11.1146 4.29409 10.3515 3.99484 9.56351 4.00007Z" fill="#181725"/>
<path d="M9.56351 16C10.0804 16 10.4995 15.5523 10.4995 15C10.4995 14.4477 10.0804 14 9.56351 14C9.04658 14 8.62752 14.4477 8.62752 15C8.62752 15.5523 9.04658 16 9.56351 16Z" fill="#181725"/>
</svg>
