<svg width="23" height="25" viewBox="0 0 23 25" fill="none" xmlns="http://www.w3.org/2000/svg">
<path d="M22.953 12.2998C22.953 11.3105 22.8749 10.5885 22.7058 9.83984H11.7107V14.3052H18.1646C18.0345 15.4149 17.3318 17.086 15.7704 18.209L15.7485 18.3585L19.2249 21.1257L19.4658 21.1504C21.6778 19.0513 22.953 15.963 22.953 12.2998Z" fill="white"/>
<path d="M11.7107 24.0648C14.8726 24.0648 17.5269 22.9953 19.4658 21.1504L15.7704 18.209C14.7815 18.9176 13.4543 19.4122 11.7107 19.4122C8.61393 19.4122 5.98554 17.3133 5.04859 14.4121L4.91125 14.4241L1.2964 17.2985L1.24913 17.4336C3.17487 21.3641 7.13051 24.0648 11.7107 24.0648Z" fill="white"/>
<path d="M5.04859 14.4121C4.80137 13.6635 4.65828 12.8612 4.65828 12.0324C4.65828 11.2034 4.80136 10.4013 5.03557 9.65262L5.02902 9.49317L1.36887 6.57257L1.24912 6.63109C0.455423 8.26218 0 10.0938 0 12.0324C0 13.9709 0.455433 15.8025 1.24913 17.4336L5.04859 14.4121Z" fill="white"/>
<path d="M11.7111 4.65252C13.9101 4.65252 15.3934 5.62848 16.2392 6.44407L19.5442 3.12844C17.5144 1.18988 14.873 0 11.7111 0C7.13086 0 3.17486 2.70052 1.24912 6.63109L5.03557 9.65262C5.98553 6.75147 8.61428 4.65252 11.7111 4.65252Z" fill="white"/>
</svg>
