<svg width="26" height="19" viewBox="0 0 26 19" fill="none" xmlns="http://www.w3.org/2000/svg">
<path d="M16.5671 14.0005C17.2751 14.0005 17.9762 13.8453 18.6303 13.5438C19.2844 13.2423 19.8787 12.8003 20.3794 12.2431C20.88 11.686 21.2771 11.0246 21.5481 10.2966C21.819 9.56865 21.9584 8.78843 21.9584 8.0005C21.9584 7.21257 21.819 6.43236 21.5481 5.7044C21.2771 4.97645 20.88 4.31501 20.3794 3.75786C19.8787 3.20071 19.2844 2.75875 18.6303 2.45723C17.9762 2.1557 17.2751 2.0005 16.5671 2.0005C15.1373 2.0005 13.766 2.63264 12.7549 3.75786C11.7438 4.88308 11.1758 6.4092 11.1758 8.0005C11.1758 9.5918 11.7438 11.1179 12.7549 12.2431C13.766 13.3684 15.1373 14.0005 16.5671 14.0005ZM25.4628 16.4865C25.5486 16.5788 25.6169 16.6892 25.6639 16.8113C25.711 16.9333 25.7357 17.0645 25.7366 17.1973C25.7376 17.3301 25.7147 17.4618 25.6695 17.5846C25.6242 17.7075 25.5574 17.8191 25.473 17.9129C25.3886 18.0067 25.2882 18.0809 25.1778 18.1311C25.0673 18.1813 24.949 18.2065 24.8297 18.2052C24.7103 18.204 24.5925 18.1763 24.4829 18.1238C24.3733 18.0713 24.2742 17.9951 24.1913 17.8995L20.9745 14.3195C19.5301 15.5674 17.7126 16.1557 15.8921 15.9647C14.0716 15.7737 12.3849 14.8178 11.1754 13.2916C9.96594 11.7653 9.32454 9.78345 9.38181 7.74943C9.43909 5.7154 10.1907 3.78213 11.4837 2.34315C12.7767 0.904173 14.5139 0.0676701 16.3415 0.00392902C18.1692 -0.0598121 19.95 0.654 21.3214 2.00005C22.6928 3.34611 23.5518 5.22322 23.7234 7.24926C23.895 9.2753 23.3663 11.298 22.2451 12.9055L25.4628 16.4865Z" fill="#181725"/>
<path d="M0.263355 1.19961C0.263355 0.537085 0.800441 0 1.46297 0H7.0204C7.68293 0 8.22002 0.537085 8.22002 1.19961C8.22002 1.86214 7.68293 2.39923 7.0204 2.39923H1.46297C0.80044 2.39923 0.263355 1.86214 0.263355 1.19961Z" fill="#181725"/>
<path d="M0.263355 8.63781C0.263355 7.97528 0.800441 7.43819 1.46297 7.43819H4.8721C5.53463 7.43819 6.07171 7.97528 6.07171 8.63781C6.07171 9.30034 5.53463 9.83742 4.8721 9.83742H1.46297C0.80044 9.83742 0.263355 9.30034 0.263355 8.63781Z" fill="#181725"/>
<path d="M0.263355 16.0764C0.263355 15.4139 0.800441 14.8768 1.46297 14.8768H7.0204C7.68293 14.8768 8.22002 15.4139 8.22002 16.0764C8.22002 16.7389 7.68293 17.276 7.0204 17.276H1.46297C0.80044 17.276 0.263355 16.7389 0.263355 16.0764Z" fill="#181725"/>
</svg>
