<svg width="19" height="15" viewBox="0 0 19 15" fill="none" xmlns="http://www.w3.org/2000/svg">
<path d="M1.85546 -0.00793028H16.6992C17.1913 -0.00793028 17.6632 0.218073 18.0112 0.620362C18.3592 1.02265 18.5546 1.56827 18.5546 2.13719V12.8628C18.5546 13.4317 18.3592 13.9774 18.0112 14.3796C17.6632 14.7819 17.1913 15.0079 16.6992 15.0079H1.85546C1.36336 15.0079 0.89142 14.7819 0.543453 14.3796C0.195486 13.9774 0 13.4317 0 12.8628V2.13719C0 1.56827 0.195486 1.02265 0.543453 0.620362C0.89142 0.218073 1.36336 -0.00793028 1.85546 -0.00793028ZM1.85546 2.13719V12.8628H16.6992V2.13719H1.85546ZM10.2051 4.28232H14.8437C15.0898 4.28232 15.3257 4.39532 15.4997 4.59646C15.6737 4.79761 15.7714 5.07042 15.7714 5.35488C15.7714 5.63934 15.6737 5.91215 15.4997 6.11329C15.3257 6.31444 15.0898 6.42744 14.8437 6.42744H10.2051C9.959 6.42744 9.72303 6.31444 9.54905 6.11329C9.37506 5.91215 9.27732 5.63934 9.27732 5.35488C9.27732 5.07042 9.37506 4.79761 9.54905 4.59646C9.72303 4.39532 9.959 4.28232 10.2051 4.28232ZM10.2051 7.5H14.8437C15.0898 7.5 15.3257 7.613 15.4997 7.81415C15.6737 8.01529 15.7714 8.2881 15.7714 8.57256C15.7714 8.85702 15.6737 9.12983 15.4997 9.33098C15.3257 9.53212 15.0898 9.64512 14.8437 9.64512H10.2051C9.959 9.64512 9.72303 9.53212 9.54905 9.33098C9.37506 9.12983 9.27732 8.85702 9.27732 8.57256C9.27732 8.2881 9.37506 8.01529 9.54905 7.81415C9.72303 7.613 9.959 7.5 10.2051 7.5Z" fill="#181725"/>
<path d="M6.26239 5.18776V5.75046C6.26239 6.05487 6.13475 6.34084 5.9135 6.54378C5.68374 6.75594 5.3859 6.87586 5.07105 6.87586C4.75619 6.87586 4.44985 6.75594 4.2286 6.54378C4.00735 6.34084 3.87971 6.05487 3.87971 5.75046V5.18776C3.87971 4.89257 4.00735 4.6066 4.2286 4.39444C4.44985 4.18227 4.75619 4.06235 5.07105 4.06235C5.3859 4.06235 5.68374 4.18227 5.9135 4.39444C6.13475 4.6066 6.26239 4.89257 6.26239 5.18776Z" fill="#181725"/>
<path d="M7.15592 8.50856V8.96979C7.15592 9.19119 7.0538 9.41258 6.89212 9.5694C6.72193 9.72622 6.49217 9.81846 6.26241 9.81846H3.87973C3.64146 9.81846 3.41171 9.72622 3.25002 9.5694C3.07983 9.41258 2.98623 9.19119 2.98623 8.96979V8.48089C2.98623 8.16725 3.08834 7.85361 3.27555 7.59532C3.46276 7.33703 3.72656 7.13409 4.0329 7.01417C4.07545 7.00495 4.10949 6.99572 4.15204 6.99572C4.19459 6.99572 4.22862 7.00495 4.27117 7.01417H5.79439C5.8114 7.01417 5.81991 7.01417 5.82842 7.0234C5.82842 7.01417 5.83693 7.01417 5.83693 7.01417C5.97309 7.00495 6.05818 7.01417 6.06669 7.01417C6.39006 7.13409 6.66236 7.33703 6.85808 7.60455C7.04529 7.87206 7.15592 8.1857 7.15592 8.50856Z" fill="#181725"/>
</svg>
